<svg xmlns="http://www.w3.org/2000/svg" viewBox="0 0 500 500">
  <path fill="#f7a8a8" d="M464.5 110.18q-2.38-4-5-7.91c-23.17-34.34-63.06-57.83-102.3-68.45a231.88 231.88 0 0 0-52.71-7.7c-116.62-3.95-163.07 88-201.61 111.68S5 202 9 287s65.22 165 183.81 170 126.5-48.42 192.71-68.19c43.82-13.08 75-57.26 90.2-98.08 20.78-55.65 19.8-127.92-11.22-180.55Z"/>
  <path fill="#fff" d="M464.5 110.18q-2.38-4-5-7.91c-23.17-34.34-63.06-57.83-102.3-68.45a231.88 231.88 0 0 0-52.71-7.7c-116.62-3.95-163.07 88-201.61 111.68S5 202 9 287s65.22 165 183.81 170 126.5-48.42 192.71-68.19c43.82-13.08 75-57.26 90.2-98.08 20.78-55.65 19.8-127.92-11.22-180.55Z" opacity=".7"/>
  <path fill="none" stroke="#263238" stroke-linecap="round" stroke-linejoin="round" d="M487.26 466.65H47"/>
  <g fill="none" stroke="#000" stroke-linecap="round" stroke-linejoin="round" opacity=".3">
    <path d="M239.56 40.47V406H358.3V40.47Zm112.76 8.12v54H302.9v-54Zm-56.81 0v54h-50v-54Zm-50 62.51h50v53.53h-50Zm106.81 286.78H245.54v-224h106.78ZM302.9 164.63V111.1h49.42v53.53Z"/>
    <path d="M357.84 40.47V406h118.73V40.47Zm112.76 8.12v54h-49.42v-54Zm-56.81 0v54h-50v-54Zm-50 62.51h50v53.53h-50ZM470.6 397.88H363.82v-224H470.6Zm-49.42-233.25V111.1h49.42v53.53Zm-95.44 69.96-29.81 37.1m37.21-46.31-4.74 5.9m-64.88 67.46-6.11 7.18m45.7-53.69-35.02 41.14m177.76-47.45-29.81 37.1m37.21-46.31-4.74 5.89m-64.88 67.47-6.1 7.18m45.69-53.7L388.2 304.7m71.42-247.63-14.27 17.76m17.81-22.17-2.27 2.83m-31.05 32.29-2.93 3.43m21.88-25.7-16.77 19.7m-28.08-28.14-14.27 17.76m17.81-22.17-2.27 2.83m-31.05 32.29-2.92 3.43m21.87-25.7-16.76 19.7m27.59 38.39-14.27 17.76m17.81-22.17-2.27 2.83m-31.05 32.29-2.92 3.43m21.87-25.7-16.76 19.7m77.25-28.14-14.27 17.76m17.81-22.17-2.27 2.83m-31.05 32.29-2.92 3.43m21.87-25.7-16.76 19.7m-83.77-94.67-14.27 17.76m17.81-22.17-2.27 2.83m-31.05 32.29-2.92 3.43m21.87-25.7-16.76 19.7m27.59 36.84-14.27 17.76m17.81-22.16-2.27 2.82m-31.05 32.29-2.92 3.44m21.87-25.7-16.76 19.69m-26.58-28.14-14.27 17.76m17.81-22.16-2.27 2.82m-31.06 32.29-2.92 3.44m21.87-25.7-16.76 19.69m23.83-93.12-14.27 17.76m17.82-22.17-2.27 2.83m-31.06 32.29-2.92 3.43m21.87-25.7-16.76 19.7"/>
  </g>
  <path fill="none" stroke="#263238" stroke-linecap="round" stroke-miterlimit="10" d="M101.65 343.72s-11-6.09-11.79 7.73S87 455.09 87 455.09"/>
  <path fill="none" stroke="#263238" stroke-linecap="round" stroke-miterlimit="10" d="M84.16 352.66s9 19.92 4.89 101.21"/>
  <path fill="#f7a8a8" d="M93 346.5s-4.2 2.69-6.59-.38S88 337.4 84.46 335s-9.62 1.27-9.62 1.27 4.69 1.37 4.54 3.94-2.42 3.53-2.72 2.41-2.54-6.76-6.35-4.42a9.45 9.45 0 0 0-4.39 6s8.87-.95 9.41 2.39-3.64-.59-7.3-.8-7 .32-6.76 2.54a28.75 28.75 0 0 1-.34 5.85 10.93 10.93 0 0 1 7.12-2.52c4 .24 3.88 2.8.22 2.59s-6.8 3.27-6.8 3.27S64.8 363.2 69 366s5.77 1.81 6.26-.36-.64-7.75 1.92-7.6-4.24 9.66-1 10.22 5.9-.38 6.76-2.53l.86-2.16s-1.14-5.57-.64-7.75 1.09.07 1.67 2.67.95 8.87 2.07 8.57 4.69-4.86 5.53-6.65-4.71-7.25-4.65-8.35 4.35 1 5 2.13a27.13 27.13 0 0 1 1.31 2.65s2.67-1.68 2.61-6.83-3.7-3.51-3.7-3.51Z"/>
  <path fill="#263238" d="M93 346.5s-4.2 2.69-6.59-.38S88 337.4 84.46 335s-9.62 1.27-9.62 1.27 4.69 1.37 4.54 3.94-2.42 3.53-2.72 2.41-2.54-6.76-6.35-4.42a9.45 9.45 0 0 0-4.39 6s8.87-.95 9.41 2.39-3.64-.59-7.3-.8-7 .32-6.76 2.54a28.75 28.75 0 0 1-.34 5.85 10.93 10.93 0 0 1 7.12-2.52c4 .24 3.88 2.8.22 2.59s-6.8 3.27-6.8 3.27S64.8 363.2 69 366s5.77 1.81 6.26-.36-.64-7.75 1.92-7.6-4.24 9.66-1 10.22 5.9-.38 6.76-2.53l.86-2.16s-1.14-5.57-.64-7.75 1.09.07 1.67 2.67.95 8.87 2.07 8.57 4.69-4.86 5.53-6.65-4.71-7.25-4.65-8.35 4.35 1 5 2.13a27.13 27.13 0 0 1 1.31 2.65s2.67-1.68 2.61-6.83-3.7-3.51-3.7-3.51Z" opacity=".3"/>
  <path fill="none" stroke="#263238" stroke-linecap="round" stroke-miterlimit="10" d="M71.68 358.57c2.73-3.39 6.77-8 10.15-10.15M68.5 362.69s.71-1 1.84-2.45m13.27-10.98s4.07 5.75 4.82 11.66M79 352.66s1.14-.67.71 6.65M82 345.86s2.32-2.07 1.1-6.18m-4.26 9.66-1.66-3.03m-1.83 6.13s-5.27-4-8.57-4.18"/>
  <path fill="#f7a8a8" d="M107.92 335.66s-.17 6-4.88 6.33-7.63-7.56-12.45-5.67-5.28 10.5-5.28 10.5 4.57-3.76 7-1.86 1.9 4.82.57 4.35-8.5-2.06-8.75 3.35a11.42 11.42 0 0 0 3 8.48s5.1-9.52 8.8-7.79-3.06 3.25-5.77 6.76-4.44 7.23-2.06 8.5a34.54 34.54 0 0 1 5.65 4.39 13.22 13.22 0 0 1 2.34-8.85c3-3.87 5.44-2 2.73 1.54s-1.36 9-1.36 9 8 .55 13.7-1.77 5.74-4.54 3.9-6.52-8.2-4.64-6.3-7.1 6.79 10.83 9.58 7.94 3.63-6.17 2.06-8.5l-1.57-2.33s-6.35-2.65-8.19-4.63.81-1.06 3.81.14 9.53 5.09 10 3.77-1.67-8-2.89-10.07-10.47-.23-11.53-1 4-3.68 5.55-3.57a34.64 34.64 0 0 1 3.55.49s.14-3.82-5.06-7.26-6.15 1.38-6.15 1.38Z"/>
  <path fill="#263238" d="M107.92 335.66s-.17 6-4.88 6.33-7.63-7.56-12.45-5.67-5.28 10.5-5.28 10.5 4.57-3.76 7-1.86 1.9 4.82.57 4.35-8.5-2.06-8.75 3.35a11.42 11.42 0 0 0 3 8.48s5.1-9.52 8.8-7.79-3.06 3.25-5.77 6.76-4.44 7.23-2.06 8.5a34.54 34.54 0 0 1 5.65 4.39 13.22 13.22 0 0 1 2.34-8.85c3-3.87 5.44-2 2.73 1.54s-1.36 9-1.36 9 8 .55 13.7-1.77 5.74-4.54 3.9-6.52-8.2-4.64-6.3-7.1 6.79 10.83 9.58 7.94 3.63-6.17 2.06-8.5l-1.57-2.33s-6.35-2.65-8.19-4.63.81-1.06 3.81.14 9.53 5.09 10 3.77-1.67-8-2.89-10.07-10.47-.23-11.53-1 4-3.68 5.55-3.57a34.64 34.64 0 0 1 3.55.49s.14-3.82-5.06-7.26-6.15 1.38-6.15 1.38Z" opacity=".2"/>
  <path fill="none" stroke="#263238" stroke-linecap="round" stroke-miterlimit="10" d="M105.49 365.19c-1.52-5.05-3.36-12.21-3.24-17.08m5.2 23.06s-.5-1.37-1.19-3.51m-1.95-20.77s8.52-.15 15 3.13m-14.74 3.8s.11-1.6 7.14 3.82m-11.92-11.43s-.49-3.74-5.44-5.31m6.79 10.83-4.17-.41m4.89 6.02s-7.58 2.56-10 5.72m-34.51 12.77s24 15.85 23.57 77.22"/>
  <path fill="#f7a8a8" d="M86.91 371.64s-.76 6.95-6.22 6.85-8.09-9.49-13.83-7.72-7.09 11.61-7.09 11.61 5.63-3.9 8.3-1.48 1.72 5.74.24 5.08-9.62-3.18-10.41 3a13.25 13.25 0 0 0 2.65 10.07s6.79-10.51 10.9-8.16-3.84 3.46-7.3 7.26-5.81 7.95-3.15 9.65a40.57 40.57 0 0 1 6.08 5.53s-.28-5.81 3.53-10 6.47-1.76 3 2-2.43 10.31-2.43 10.31 9.16 1.38 16-.76 7-4.7 5.12-7.15-9-6.13-6.6-8.79 6.8 13.14 10.3 10.07 4.77-6.78 3.18-9.61l-1.59-2.84s-7.08-3.67-9-6.12 1-1.14 4.39.52 10.51 6.78 11.17 5.29-1.18-9.4-2.38-11.89-12.07-1.25-13.21-2.29 4.91-3.87 6.74-3.59a40.49 40.49 0 0 1 4.05.9s.52-4.39-5.15-8.85-7.29 1.11-7.29 1.11Z"/>
  <path fill="#263238" d="M86.91 371.64s-.76 6.95-6.22 6.85-8.09-9.49-13.83-7.72-7.09 11.61-7.09 11.61 5.63-3.9 8.3-1.48 1.72 5.74.24 5.08-9.62-3.18-10.41 3a13.25 13.25 0 0 0 2.65 10.07s6.79-10.51 10.9-8.16-3.84 3.46-7.3 7.26-5.81 7.95-3.15 9.65a40.57 40.57 0 0 1 6.08 5.53s-.28-5.81 3.53-10 6.47-1.76 3 2-2.43 10.31-2.43 10.31 9.16 1.38 16-.76 7-4.7 5.12-7.15-9-6.13-6.6-8.79 6.8 13.14 10.3 10.07 4.77-6.78 3.18-9.61l-1.59-2.84s-7.08-3.67-9-6.12 1-1.14 4.39.52 10.51 6.78 11.17 5.29-1.18-9.4-2.38-11.89-12.07-1.25-13.21-2.29 4.91-3.87 6.74-3.59a40.49 40.49 0 0 1 4.05.9s.52-4.39-5.15-8.85-7.29 1.11-7.29 1.11Z" opacity=".3"/>
  <path fill="none" stroke="#263238" stroke-linecap="round" stroke-miterlimit="10" d="M81.32 405.49c-1.28-6-2.72-14.41-2.12-20m3.8 27.09s-.44-1.63-1-4.16m-.31-24.16s9.85.63 17 5m-17.35 3.02s.27-1.83 7.88 5.09m-12.68-14.32s-.21-4.36-5.78-6.64m6.81 13.14-4.77-.87m5.08 7.4s-9 2.25-12.11 5.67"/>
  <path fill="none" stroke="#263238" stroke-linecap="round" stroke-miterlimit="10" d="M66.7 424.2s15.44 11.8 17.07 29.26l-3.26-58.53m23.58 20.73c-20.32-3.66-20.32 37.8-20.32 37.8"/>
  <path fill="none" stroke="#263238" stroke-linecap="round" stroke-miterlimit="10" d="M86.2 453.05s-11.78-85.75 22.36-85.75"/>
  <path fill="#f7a8a8" d="M96.34 413.2c-2.77-3.13-8.67-3.13-12.14 4.86s-.35 6.59-.35 6.59 6.6-2.08 10.76-3.47 9.71-4.86 10.06-2.78-2.77 4.17-6.59 4.86-13.88 3.47-12.84 5.55 3.47 8.33 3.47 8.33a89.14 89.14 0 0 1 9.37-6.94c4.51-2.78 7.29-1.74 4.86 1.39s-9.37 6.59-8 10.75 9.71 9.37 9.71 9.37 1-8.67 3.47-11.45 2.43.35 1.74 5.21a55.85 55.85 0 0 0-.7 6.24l9.72 3.47a70.31 70.31 0 0 1 5.2-6.94l1.74-1.73s-7.64-6.59-8-10.76 5.2 0 6.94.7 4.51 5.55 4.51 5.55 1.73-8 2.08-10.76l.35-2.78s-7.29-2.77-10.07-2.77-4.16 2.08-4.16-.7 2.78-4.51 5.9-4.16a54.76 54.76 0 0 1 8.33 2.08s2.08-1.73 1.38-6.94-2.42-5.2-6.59-3.81-6.94 4.51-10.06 4.51-1.39-3.82.69-4.86 7.29-3.12 8.33-3.47-5.55-5.21-9-5.9-8 1.75-7.63 5.21c.71 7.28-9.7 8.67-12.48 5.55Z"/>
  <path fill="none" stroke="#263238" stroke-linecap="round" stroke-miterlimit="10" d="M118.68 448.92c.1 1.05.18 2.1.22 3.14M111.71 424a92.09 92.09 0 0 1 6.53 21.51m-7.78-24.28c-1.72-3.7-3-6-3-6a10.29 10.29 0 0 0 4.51-4.16 11.59 11.59 0 0 1 3.47-4.17M95.3 427.08s12.49-5.21 12.49-4.17m6.94-2.43s5.56-2.77 10.41-2.77m-12.49 11.1a48.29 48.29 0 0 0-6.59 6.59 30 30 0 0 0-4.86 8m15.27-13.2s7.29-2.08 11.1 1.39"/>
  <path fill="#f7a8a8" d="M129.67 383.31c-3.78-2.23-8-2.28-10-4.64s2-3.55 4.12-2.66 7.13 3.46 8.08 4 .29-7.61-1.46-10.68-6.54-4.87-8.94-2.36c-5 5.31-12.92-1.65-12.38-5.79s-3.33-8.6-11.63-6-5.2 4.06-5.2 4.06 5.89 3.62 9.67 5.85 10 4.15 8.69 5.78-5 .63-8-1.79-11.71-8.18-12.62-6.03-4 8.08-4 8.08a88 88 0 0 1 11.38 2.53c5 1.58 6.09 4.36 2.14 4.58s-11.12-2.76-13.36 1-.7 13.48-.7 13.48 7.23-4.9 10.92-4.89 1.33 2.06-2.79 4.72a57.34 57.34 0 0 0-5.18 3.58l3.75 9.61a67.83 67.83 0 0 1 8.66-.62l2.44.17s0-10.09 2.89-13.08 3.42 3.93 4 5.7-1.24 7-1.24 7 7.17-3.92 9.49-5.48l2.33-1.55s-2.69-7.33-4.51-9.42-4.3-1.78-2.2-3.6 5.23-.86 7 1.72a53.91 53.91 0 0 1 3.98 7.72s2.67.43 6.15-3.5 2.3-5.25-1.48-7.49Zm-32.84 11.11c-2.78-1.39 3.82-4.16 3.82-4.16 2.43-.35-1.04 5.55-3.82 4.16Zm4.67-12.95c-1.18-.59 2.37-1.78 2.37-1.78 5.13.99-1.18 2.37-2.37 1.78Z"/>
  <path fill="none" stroke="#263238" stroke-linecap="round" stroke-miterlimit="10" d="M96.76 401.49c-.72.76-1.47 1.5-2.23 2.22M111 379.9a91.75 91.75 0 0 1-12 19m13.28-21.77c1.72-3.73 2.52-6.13 2.52-6.13a10.25 10.25 0 0 0 6.1.68 11.59 11.59 0 0 1 5.42-.11m-28.39-2.06s12.12 6 11.33 6.71m6.39 3.65s5.73 2.37 8.92 6M108 383.75a48.34 48.34 0 0 0-9.3-.65 30 30 0 0 0-9.21 1.56m19.96 2.88s6.35 4.14 6.23 9.3"/>
  <path fill="#f7a8a8" d="M75.75 431.39c-3-1.79-6.4-1.83-8-3.73s1.59-2.86 3.32-2.14 5.74 2.78 6.5 3.23.23-6.12-1.17-8.6-5.27-3.91-7.19-1.89c-4.07 4.27-10.4-1.33-10-4.66s-2.68-6.92-9.36-4.82-4.19 3.27-4.19 3.27 4.75 2.91 7.79 4.7 8.07 3.35 7 4.66-4 .5-6.43-1.45-9.43-6.6-10.15-4.87-3.23 6.5-3.23 6.5a71.94 71.94 0 0 1 9.16 2c4.07 1.28 4.9 3.52 1.72 3.69s-9-2.22-10.74.82-.6 10.9-.6 10.9 5.82-4 8.82-3.95 1.07 1.66-2.25 3.8a45.19 45.19 0 0 0-4.16 2.87l3 7.73a55.85 55.85 0 0 1 7-.49l2 .14s0-8.12 2.33-10.53 2.74 3.16 3.23 4.58-1 5.67-1 5.67 5.77-3.15 7.64-4.41l1.87-1.25s-2.16-5.89-3.63-7.58-3.46-1.43-1.77-2.9 4.2-.69 5.64 1.39a43.22 43.22 0 0 1 3.1 6.16s2.15.35 5-2.82 1.79-4.22-1.25-6.02Zm-26.43 8.94c-2.23-1.11 3.08-3.33 3.08-3.33 1.95-.3-.84 4.45-3.08 3.33Zm3.77-10.42c-1-.48 1.9-1.43 1.9-1.43 4.13.79-.99 1.9-1.9 1.43Z"/>
  <path fill="none" stroke="#263238" stroke-linecap="round" stroke-miterlimit="10" d="M49.26 446c-.58.61-1.17 1.21-1.79 1.79m13.25-19.15A73.41 73.41 0 0 1 51.1 444m10.66-17.59c1.34-3 2-5 2-5a8.27 8.27 0 0 0 4.91.55 9.38 9.38 0 0 1 4.37-.09m-22.83-1.58s9.75 4.84 9.12 5.39m5.14 2.94s4.61 1.91 7.17 4.86m-13.33-1.73a38.49 38.49 0 0 0-7.49-.53 24.07 24.07 0 0 0-7.41 1.26m16.07 2.32s5.11 3.33 5 7.48"/>
  <path fill="#f7a8a8" d="M63.35 374.1s-3.81 2.77-6.24 0 1-8.33-2.43-10.41-9 1.73-9 1.73 4.51 1 4.51 3.47-2.08 3.47-2.43 2.43-2.78-6.25-6.25-3.82a8.91 8.91 0 0 0-3.81 5.9s8.32-1.39 9 1.74-3.47-.35-6.94-.35-6.59.69-6.25 2.78a27.09 27.09 0 0 1 0 5.55 10.32 10.32 0 0 1 6.6-2.78c3.81 0 3.81 2.43.34 2.43s-6.24 3.47-6.24 3.47 3.47 5.2 7.63 7.63 5.55 1.39 5.9-.69-1-7.29 1.39-7.29-3.47 9.37-.35 9.72 5.55-.69 6.25-2.78l.69-2.08s-1.39-5.2-1-7.29 1 0 1.73 2.43 1.39 8.33 2.43 8S63 389 63.7 387.28s-4.86-6.59-4.86-7.63 4.17.69 4.86 1.73 1.39 2.43 1.39 2.43 2.43-1.73 2.08-6.59-3.82-3.12-3.82-3.12Z"/>
  <path fill="none" stroke="#263238" stroke-linecap="round" stroke-miterlimit="10" d="M43.92 386.68c2.39-3.35 5.95-7.9 9-10.16m-11.77 14.23s.61-1 1.6-2.41m11.93-11.12s4.16 5.2 5.2 10.76m-9.36-7.29s1-.7 1 6.24m1.42-12.83s2.09-2.09.7-5.9m-3.47 9.37-1.74-2.78m-1.38 5.9s-5.21-3.47-8.33-3.47"/>
  <path fill="#263238" stroke="#263238" stroke-linecap="round" stroke-miterlimit="10" stroke-width="2" d="M71.57 451.84h26.82V466H71.57z"/>
  <rect width="274.22" height="327.89" x="56.52" y="29.4" opacity=".2" rx="10.5"/>
  <rect width="274.22" height="327.89" x="48.52" y="23.4" fill="#e3e3e3" stroke="#263238" stroke-linecap="round" stroke-linejoin="round" rx="10.5"/>
  <path fill="#fff" stroke="#263238" stroke-linecap="round" stroke-linejoin="round" d="M78.29 23.4h204.39v327.89H78.29z"/>
  <path fill="#b2b2b2" stroke="#263238" stroke-linecap="round" stroke-linejoin="round" d="M313.64 24.17v327.76a10.24 10.24 0 0 0 9.11-10.18V34.35a10.25 10.25 0 0 0-9.11-10.18Z"/>
  <path fill="gray" stroke="#263238" stroke-linecap="round" stroke-linejoin="round" d="M313.64 151.29h9.11v51.4h-9.11z"/>
  <path fill="#b2b2b2" stroke="#263238" stroke-linecap="round" stroke-linejoin="round" d="M322.75 66.45v-32.1a10.24 10.24 0 0 0-10.25-10.24H58.77a10.24 10.24 0 0 0-10.25 10.24v32.1Z"/>
  <path fill="#fff" stroke="#263238" stroke-linecap="round" stroke-linejoin="round" d="M63.57 40.7h116.67v7.76H63.57z"/>
  <path fill="#263238" stroke="#263238" stroke-linecap="round" stroke-linejoin="round" d="M48.52 52.63h274.22v13.82H48.52z"/>
  <path fill="none" stroke="#fff" stroke-linecap="round" stroke-linejoin="round" d="M54.88 56.22h7.13m-7.13 3.1h7.13m-7.13 3.1h7.13m29.76-6.33v8.06m42.03-8.06v8.06m42.03-8.06v8.06m42.02-8.06v8.06m42.03-8.06v8.06"/>
  <path fill="#263238" stroke="#263238" stroke-linecap="round" stroke-linejoin="round" d="M322.75 36.05v-1.7a10.24 10.24 0 0 0-10.25-10.24H58.77a10.24 10.24 0 0 0-10.25 10.24v1.7Z"/>
  <circle cx="283.53" cy="30.11" r="3.06" fill="#fff" stroke="#263238" stroke-linecap="round" stroke-linejoin="round"/>
  <circle cx="293.18" cy="30.11" r="3.06" fill="#fff" stroke="#263238" stroke-linecap="round" stroke-linejoin="round"/>
  <path fill="#fff" stroke="#263238" stroke-linecap="round" stroke-linejoin="round" d="M305.89 30.11a3.06 3.06 0 1 0-3.06 3.06 3.06 3.06 0 0 0 3.06-3.06Z"/>
  <path fill="#b2b2b2" stroke="#263238" stroke-linecap="round" stroke-linejoin="round" d="M48.52 332.16v9.59A10.25 10.25 0 0 0 58.77 352H312.5a10.25 10.25 0 0 0 10.25-10.25v-9.59Z"/>
  <path fill="#f7a8a8" stroke="#263238" stroke-linecap="round" stroke-linejoin="round" d="M98.11 113.08H250.1v85.2H98.11z"/>
  <path fill="#fff" stroke="#263238" stroke-linecap="round" stroke-linejoin="round" d="m250.09 160.87-33.96-21.88-34.55 34.54-24.18-28.21-57.69 52-1.6.97h151.98v-37.42z"/>
  <circle cx="121.71" cy="132.66" r="12.09" fill="#fff" stroke="#263238" stroke-linecap="round" stroke-linejoin="round"/>
  <path fill="none" stroke="#263238" stroke-miterlimit="10" d="M98.68 204.04h150.84m-150.84 6.91h90.39m41.64 12.93h19.38m-42.44 0h20.82m-29.11 0h6.05m-34.49 0h26.87m-61.81 0h32.03m-57.56 0h22.17m-34.3 0h9.22m10.16 8.01H98.32m42.45 0h-20.83m29.12 0h-6.05m34.49 0h-26.88m61.81 0h-32.02m57.55 0h-22.17m34.3 0h-9.22m-10.16 7.66h19.38m-42.44 0h20.82m-29.11 0h6.05m-34.49 0h26.87m-61.81 0h32.03m-57.56 0h22.17m-34.3 0h9.22m10.16 8.01H98.32m42.45 0h-20.83m29.12 0h-6.05m34.49 0h-26.88m61.81 0h-32.02m57.55 0h-22.17m34.3 0h-9.22m-10.16 7.66h19.38m-42.44 0h20.82m-29.11 0h6.05m-34.49 0h26.87m-61.81 0h32.03m-57.56 0h22.17m-34.3 0h9.22m10.16 8.01H98.32m42.45 0h-20.83m29.12 0h-6.05m34.49 0h-26.88m61.81 0h-32.02m57.55 0h-22.17m34.3 0h-9.22m-10.16 7.66h19.38m-42.44 0h20.82m-29.11 0h6.05m-34.49 0h26.87m-61.81 0h32.03m-57.56 0h22.17m-34.3 0h9.22m10.16 8.01H98.32m42.45 0h-20.83m29.12 0h-6.05m34.49 0h-26.88m61.81 0h-32.02m57.55 0h-22.17m34.3 0h-9.22m-10.16 7.66h19.38m-42.44 0h20.82m-29.11 0h6.05m-34.49 0h26.87m-61.81 0h32.03m-57.56 0h22.17m-34.3 0h9.22m10.16 8.01H98.32m42.45 0h-20.83m29.12 0h-6.05m34.49 0h-26.88m61.81 0h-32.02m57.55 0h-22.17m34.3 0h-9.22m-10.16 7.66h19.38m-42.44 0h20.82m-29.11 0h6.05m-34.49 0h26.87m-61.81 0h32.03m-57.56 0h22.17m-34.3 0h9.22m10.16 8H98.32m42.45 0h-20.83m29.12 0h-6.05m34.49 0h-26.88m61.81 0h-32.02m57.55 0h-22.17m34.3 0h-9.22m-10.16 7.66h19.38m-42.44 0h20.82m-29.11 0h6.05m-34.49 0h26.87m-61.81 0h32.03m-57.56 0h22.17m-34.3 0h9.22m10.16 8.01H98.32m42.45 0h-20.83m29.12 0h-6.05m34.49 0h-26.88m61.81 0h-32.02m57.55 0h-22.17m34.3 0h-9.22"/>
  <path fill="#263238" d="m103.67 102-1.06 5.54h-2.83L105 80h4.44l5.26 27.49h-3.06l-1.02-5.49Zm.39-2.63h6.13l-3.1-15.86ZM123.26 80c4.32 0 6.13 2.2 6.13 6.29v2.23c0 3-1.06 4.91-3.42 5.66 2.51.74 3.46 2.78 3.46 5.73v4.28a6.91 6.91 0 0 0 .55 3.3h-3.1a7.12 7.12 0 0 1-.52-3.34v-4.3c0-3.1-1.45-4.08-4-4.08h-2.16v11.74h-3.06V80Zm-.78 13c2.43 0 3.88-.79 3.88-3.77v-2.65c0-2.47-.9-3.77-3.18-3.77h-3V93Zm14.09 14.51v-24.7h-5.06V80h13.15v2.79h-5.06v24.7ZM149.81 80v27.49h-3.07V80Zm15.27 6.66v2.47h-2.91V86.5c0-2.47-1-4-3.22-4s-3.22 1.49-3.22 4V101c0 2.47 1 4 3.22 4s3.22-1.49 3.22-4v-3.54h2.91v3.41c0 4.16-2 6.91-6.2 6.91s-6.17-2.75-6.17-6.91V86.66c0-4.16 2-6.91 6.17-6.91s6.2 2.75 6.2 6.91Zm2.79 20.85V80h3.06v24.7h7.85v2.79Zm23.01-15.32v2.75h-6.72v9.78h8.25v2.79H181.1V80h11.31v2.79h-8.25v9.38Z"/>
  <path fill="#f7a8a8" stroke="#263238" stroke-linecap="round" stroke-linejoin="round" d="M312.67 326.13s-23 5.5-31 17-27 47.5-32 54.5-22 17-25 31.5.5 24.5 16 32.5 36-8.5 48-13l.5 18h125l4.5-21.5s27.5 2.5 35 0 17.5 3.5 18.5-2.5-3.5-18.5-9.5-29-6-7.5-12-22-10.5-28-15.5-40.5-15.43-23.13-25.11-26.34-31.89-1.16-40.39-2.16-57 3.5-57 3.5Z"/>
  <path fill="none" stroke="#263238" stroke-linecap="round" stroke-linejoin="round" d="M416 431.13s8.66-13.67 24.33-18m-.42-12.13a40.56 40.56 0 0 1 4.1-1.82m-30.34 26.62s8.91-14.07 22.21-22.54m-16.21-27.6c-5 12.57-12.34 34.06-11 48.8m15.33-59s-.92 2-2.3 5.21m-171.34 45.4A36.54 36.54 0 0 1 268 427.13m-29-12a25.74 25.74 0 0 1 6.81.05m11.8-8.3C263.48 411.06 271 418 274 427.46m-24.33-25.33a47.09 47.09 0 0 1 5 2.81"/>
  <path fill="#fff" stroke="#263238" stroke-linecap="round" stroke-linejoin="round" d="M334.09 351.31s6.45 10.75 22.58 10.39 22.93-17.92 22.93-26.88-5.73-15.05-20.78-11.47-31.9 3.95-24.73 27.96Z"/>
  <path fill="#fff" stroke="#263238" stroke-linecap="round" stroke-linejoin="round" d="M336.6 330.16s-4.3 14.7-2.51 21.15a52.76 52.76 0 0 0 5.38 12.18s12.18-11.47 14-12.9 12.9 11.11 14.34 12.54 9.67-3.58 12.18-15.41.72-25.8-1.79-29.38-5.38-3.94-5.38-3.94-26.9-2.87-36.22 15.76Z"/>
  <path fill="#fff" stroke="#263238" stroke-linecap="round" stroke-linejoin="round" d="M339.11 331.6s10.39 17.56 13.62 17.91 17.55-11.46 21.5-21.14.71-20.07.71-20.07-12.18 15.41-20.42 20.43-15.41 2.87-15.41 2.87Z"/>
  <path fill="#263238" stroke="#263238" stroke-linecap="round" stroke-linejoin="round" d="M354.52 328.73a20.85 20.85 0 0 1-14.88 3l-.35.18c.68 1.13 3.26 5.4 6.06 9.46a9.31 9.31 0 0 0 6.77-1.1c10.34-5.46 18.37-23.83 18.37-23.83l-4.59 2.28c-3.68 3.88-7.9 7.88-11.38 10.01Z"/>
  <path fill="#263238" stroke="#263238" stroke-linecap="round" stroke-linejoin="round" d="M303.27 236.27s-23.06 36.79-18.76 57.93 24.14 46.36 18.05 53.16-9.32 4.3-6.46 8.25 20.43 8.24 33.33 3.94S343.77 337 337 327.3s-19.35-46.59-14-55.19 26.88-3.58 34.4 0 17.21 24.73 16.13 34.4 3.23 31.9 17.92 32.25 18.63-14 18.63-14-9.67 2.15-9.67-3.23 7.88-12.18 4.3-27.23-11.83-17.92-12.9-33.69-7.17-31.18-19.36-40.13-44.45-21.83-69.18 15.79Z"/>
  <path fill="none" stroke="#6b6b6b" stroke-linecap="round" stroke-linejoin="round" d="M305.33 286.27a31.44 31.44 0 0 0-.24 14.69c3.54 18.33 20.27 36.67 17.05 47.93s-13.19 10.29-19 5.47m8.71-77.85a14.65 14.65 0 0 0-4.55 5.07"/>
  <path fill="none" stroke="#6b6b6b" stroke-linecap="round" stroke-linejoin="round" d="M316.31 334.76a17.32 17.32 0 0 1 3.26 9.62m2.52-102.83c-7.33 6-16.14 14.38-22.46 24.34-12.87 20.27-11.59 25.42-4.51 41.5 4.53 10.3 13.28 17.3 19 24.38m21.53-99.98s-3.65 2.19-8.86 6.09m13.37-17.67s-6.11 19.3-5.15 23.16m56.44 87.74a18.48 18.48 0 0 0 5 2.66m-17.52-68.31a52 52 0 0 1 14 15.23c12.23 19.3 2.9 23.8-2.89 34.42-3.2 5.87-3.06 10.17-1.09 13.28m-21.77-67.97a21.6 21.6 0 0 1 7.08 2.28m10.95-5.7a38.32 38.32 0 0 1 3.84 5.38m-49.21-25.44s1.93 7.08 19.3 7.4a34 34 0 0 1 23.53 9.91"/>
  <path fill="#fff" stroke="#263238" stroke-linecap="round" stroke-linejoin="round" d="M336.24 245.23s-19.71 17.56-23.65 28.67 9 37.27 10.39 41.21c1.53 4.2 5.72 8.11 8.6 11.39 4.68 5.32 11.69 12.37 19.46 11.32 9.69-1.31 19.63-16.31 23.9-24.14S380 294 380 294s5 .36 5-6.45.71-17.2-2.87-17.2a11 11 0 0 0-6.45 2.51 94.19 94.19 0 0 1-24-13.62c-11.86-9.35-15.44-14.01-15.44-14.01Z"/>
  <path fill="none" stroke="#263238" stroke-linecap="round" stroke-linejoin="round" d="M337.32 308.66a4.87 4.87 0 0 0 6.45 3.58c5.37-1.43 6.09-3.22 6.09-3.22M337 316.19s11.82 4.3 18.63-2.87"/>
  <path fill="none" stroke="#263238" stroke-linecap="round" stroke-linejoin="round" stroke-width="2" d="M347 279.63s4.66-5.37 15.41-2.15m-31.19 6.1s-7.16-2.51-13.26-2.51"/>
  <path fill="none" stroke="#263238" stroke-linecap="round" stroke-linejoin="round" d="M338.39 287.88a47.71 47.71 0 0 0-16.84-3.95c-9.32-.35-10.75 1.08-10.39 2.51s.71 16.49 8.95 17.92 16.13 0 17.56-3.94.72-12.54.72-12.54Zm5.01-.68a48 48 0 0 1 16-6.52c9.14-1.8 10.78-.61 10.65.86s1.87 16.39-6.05 19.1-15.93 2.51-18-1.16-2.6-12.28-2.6-12.28Z"/>
  <path fill="none" stroke="#263238" stroke-linecap="round" stroke-linejoin="round" d="M338.39 287.88a4.52 4.52 0 0 1 5-.68"/>
  <path fill="#263238" d="M331.21 294.07c.28 2-.29 3.66-1.27 3.8s-2-1.33-2.28-3.29.28-3.66 1.26-3.8 2 1.33 2.29 3.29Zm25.44-1.79c.28 2-.28 3.66-1.26 3.8s-2-1.33-2.29-3.29.28-3.66 1.26-3.8 2.01 1.33 2.29 3.29Z"/>
  <path fill="none" stroke="#263238" stroke-linecap="round" stroke-linejoin="round" d="m369.93 279.99 5.73-7.16"/>
  <path fill="#fff" stroke="#263238" stroke-linecap="round" stroke-linejoin="round" d="M377.67 418.13s-1-4-6-8-17-7-17-3.5 12 14 15.5 19 7 16 14.5 21.5 45 17.5 61 18.5 26.5-9.5 26-20.5-8.5-21-21.5-23-19 4.5-26.5 6.5-13.5 4-13.5 4 4-13.5 3-17.5-7.8-6.53-7.8-6.53l-5.2-5s-10.5-8.5-12-8.5-7.5-7-15-7-17 5.5-14 8.5 9.5 1 13 1 7 7.5 7 7.5-4.5 3-3 5 2.5 3.5 2.5 3.5Z"/>
  <path fill="none" stroke="#263238" stroke-linecap="round" stroke-linejoin="round" d="M378.41 413s.73 4 3.83 4 1.82-4.55 2.91-6 4-6.74 4-6.74m14.58 5.07s-7.1 6.74-7.65 7.11-2.18 4.19-3.46 6.19-4.37 2.55-5.28 0 .36-6.56 1.45-8.38 4.56-7.29 4.56-7.29 2.37-3.46 5.65-3.46"/>
  <path fill="none" stroke="#263238" stroke-linecap="round" stroke-linejoin="round" d="M399.91 413.34s-3.83 5.28-3.83 7.29-1.27 7.1.37 7.83 3.82.73 4.92-1.64 2.36-5.1 2.36-5.1 2.56-.18 3.65-2"/>
  <path fill="none" stroke="#263238" stroke-linecap="round" stroke-linejoin="round" d="M403.73 421.72a5.36 5.36 0 0 0 2.74 2.73M387 394.94a2.71 2.71 0 0 0-2.91 2c-.91 2.37-4.89 8.19-4.89 8.19m4.49 2.56a33 33 0 0 1 .73 4m3.46-4.91a5.8 5.8 0 0 0 2.55 3.46m19.74 22.39s-3.83 12.83-6.83 16.17"/>
  <path fill="#263238" stroke="#263238" stroke-linecap="round" stroke-linejoin="round" d="M272.63 388.34 301 465.83a5 5 0 0 0 4.71 3.3H380a5 5 0 0 0 4.72-6.76L357 387.55a9.76 9.76 0 0 0-9.21-6.38l-70.52.42a5 5 0 0 0-4.64 6.75Z"/>
  <path fill="#fff" stroke="#263238" stroke-linecap="round" stroke-linejoin="round" d="m264.67 432.63 1.5-12s5-1.5 2.5-10-4-9.5-1-9.5 9 1.5 10.5 6.5 2 14 2 14 35.5-5 38-5 5 2.5 1 4.5-24 11-24 11 25.5-5.5 27-5.5 6.5 0 4 2.5-9 5.5-9 5.5 11.5-2 11 1.5-12.5 7-12.5 7 5.5 0 4 2.5-23.5 10.5-28 12.5-18 2-18 2a59.65 59.65 0 0 1-19 7c-11 2-22.5 1.5-27.5-10s-1-27.5 9-32.5 17-3.5 21-.5 7.5 8.5 7.5 8.5Z"/>
  <path fill="none" stroke="#263238" stroke-linecap="round" stroke-linejoin="round" d="m295.17 432.13-10 3m32-.5-29 9m27.5-.5-24.5 8.5m-26.5-19s-2 4-8 0m17 27.5-11.5-2.5m18-36-10.5 2"/>
  <g stroke="#263238" stroke-linecap="round">
    <path fill="none" stroke-miterlimit="10" d="M167.51 400.78a12 12 0 0 0 .81 5c2.46 6.16 3.18 8.7 2.18 13.7m-.61-26.57a18 18 0 0 0-1.76 4.21m10.57-4.21s-4.09 6.6-1.58 12.89 3.19 8.7 2.19 13.7m9.23-3.63a19.35 19.35 0 0 1-.43 3.63m-.61-26.59s-4.09 6.6-1.57 12.89a56.19 56.19 0 0 1 2 5.6"/>
    <path fill="#fff" stroke-linejoin="round" d="M195.06 432.83s4.08-4.08 7.05-.74 1.85 20-.75 25.22-8.55.27-8.55.27v-3.61s2.66 2.46 5.63-.5 2.16-14.71 1-16.56-5.56.74-5.56.74Z"/>
    <path fill="#fff" stroke-linejoin="round" d="M192.76 473.42h-28.19l-3.52-49.47h35.23l-3.52 49.47z"/>
  </g>
</svg>
