<svg xmlns="http://www.w3.org/2000/svg" viewBox="0 0 500 500">
  <path fill="#e0e0e0" d="M454.09 150.73a10.18 10.18 0 0 0-2.29-5.67 9.71 9.71 0 0 0-4.91-3.43 8 8 0 0 0-6.23.85 7.87 7.87 0 0 0-2.68 2.7 7.94 7.94 0 0 0-2.2-2.68 8.05 8.05 0 0 0-6.09-1.57 9.84 9.84 0 0 0-5.28 2.84 10.27 10.27 0 0 0-2.93 5.37 12.39 12.39 0 0 0 1.1 7.7 17.49 17.49 0 0 0 5.7 6c3.8 2.6 8.82 5.88 8.82 5.88s4.57-3 8.65-5.17a17.69 17.69 0 0 0 6.36-5.3 12.44 12.44 0 0 0 1.98-7.52ZM143 102.93a6.82 6.82 0 0 0-1.54-3.82 6.54 6.54 0 0 0-3.3-2.3 5.4 5.4 0 0 0-4.19.57 5.28 5.28 0 0 0-1.8 1.81 5.48 5.48 0 0 0-1.48-1.8 5.4 5.4 0 0 0-4.09-1 6.54 6.54 0 0 0-3.6 1.86 6.79 6.79 0 0 0-2 3.61 8.3 8.3 0 0 0 .74 5.17 11.75 11.75 0 0 0 3.83 4c2.55 1.75 5.93 4 5.93 4s3.07-2 5.81-3.48a11.74 11.74 0 0 0 4.28-3.56 8.32 8.32 0 0 0 1.41-5.06Zm70.05-14.61a13.91 13.91 0 0 0-2.9-7.92 13.51 13.51 0 0 0-6.61-5 11.06 11.06 0 0 0-8.63.9 10.89 10.89 0 0 0-3.82 3.6 10.9 10.9 0 0 0-11.25-6.22 13.5 13.5 0 0 0-7.4 3.67 14.06 14.06 0 0 0-4.28 7.27 17.14 17.14 0 0 0 1.16 10.67 24.11 24.11 0 0 0 7.6 8.53c5.12 3.76 11.89 8.5 11.89 8.5s6.45-4 12.17-6.74a24.06 24.06 0 0 0 9-7 17 17 0 0 0 3.07-10.26ZM72.82 254.77a6.82 6.82 0 0 0-1.54-3.77 6.53 6.53 0 0 0-3.3-2.31 5.38 5.38 0 0 0-4.18.57A5.43 5.43 0 0 0 62 251a5.26 5.26 0 0 0-1.48-1.8 5.35 5.35 0 0 0-4.09-1.05 6.59 6.59 0 0 0-3.55 1.9 6.94 6.94 0 0 0-2 3.61 8.41 8.41 0 0 0 .74 5.18 11.81 11.81 0 0 0 3.83 4c2.56 1.75 5.93 3.95 5.93 3.95s3.07-2 5.82-3.47a11.81 11.81 0 0 0 4.27-3.56 8.35 8.35 0 0 0 1.35-4.99Zm83.29-191a5.06 5.06 0 0 0-1.11-2.84 4.87 4.87 0 0 0-2.45-1.72A4 4 0 0 0 148 61a4 4 0 0 0-1.1-1.34 4.06 4.06 0 0 0-3.05-.79 5 5 0 0 0-2.64 1.42 5.11 5.11 0 0 0-1.42 2.71 6.12 6.12 0 0 0 .55 3.86 8.79 8.79 0 0 0 2.85 3c1.9 1.3 4.41 2.94 4.41 2.94s2.29-1.51 4.33-2.59a8.74 8.74 0 0 0 3.19-2.65 6.23 6.23 0 0 0 .99-3.79Zm221.76 301.65a6.81 6.81 0 0 0-1.53-3.81 6.62 6.62 0 0 0-3.3-2.31 5.32 5.32 0 0 0-6 2.39 5.26 5.26 0 0 0-1.48-1.8 5.35 5.35 0 0 0-4.09-1.05 6.59 6.59 0 0 0-3.55 1.9 6.94 6.94 0 0 0-2 3.61 8.41 8.41 0 0 0 .74 5.18 11.81 11.81 0 0 0 3.83 4c2.56 1.75 5.93 3.95 5.93 3.95s3.08-2 5.82-3.47a11.81 11.81 0 0 0 4.27-3.56 8.28 8.28 0 0 0 1.36-5.03Zm-274.28-23.28a15.15 15.15 0 0 0-3.41-8.45 14.51 14.51 0 0 0-7.3-5.1 12 12 0 0 0-9.27 1.27 11.81 11.81 0 0 0-4 4 11.77 11.77 0 0 0-3.27-4 12 12 0 0 0-9.06-2.33 14.58 14.58 0 0 0-7.85 4.22 15.19 15.19 0 0 0-4.36 8 18.47 18.47 0 0 0 1.63 11.46 26.14 26.14 0 0 0 8.48 8.93c5.66 3.86 13.12 8.76 13.12 8.76s6.81-4.5 12.88-7.69a26.14 26.14 0 0 0 9.46-7.88 18.47 18.47 0 0 0 2.95-11.19ZM373.12 75.93a7.71 7.71 0 0 0-1.73-4.29 7.5 7.5 0 0 0-3.72-2.6 6 6 0 0 0-6.74 2.69 5.94 5.94 0 0 0-6.27-3.21 7.42 7.42 0 0 0-4 2.14 7.73 7.73 0 0 0-2.22 4.07 9.42 9.42 0 0 0 .83 5.82 13.18 13.18 0 0 0 4.31 4.54c2.88 2 6.67 4.45 6.67 4.45s3.46-2.29 6.55-3.91a13.38 13.38 0 0 0 4.81-4 9.35 9.35 0 0 0 1.51-5.7Z"/>
  <path fill="#f7a8a8" d="M279.81 393.13c-70-7.47-127.67-40.29-155.4-69.27a112 112 0 0 1-30-91.92c4.37-33.64 23.12-66.06 52.49-83s69.22-16.2 95.59 5.14c12.06-29.08 43.78-47.85 75.26-47.41s61.44 18.57 79.17 44.58 23.77 59 19.75 90.24-17.58 60.72-35.92 86.31c-24.12 33.67-59.62 62.41-100.93 65.37"/>
  <path fill="#fff" d="M279.81 393.13c-70-7.47-127.67-40.29-155.4-69.27a112 112 0 0 1-30-91.92c4.37-33.64 23.12-66.06 52.49-83s69.22-16.2 95.59 5.14c12.06-29.08 43.78-47.85 75.26-47.41s61.44 18.57 79.17 44.58 23.77 59 19.75 90.24-17.58 60.72-35.92 86.31c-24.12 33.67-59.62 62.41-100.93 65.37" opacity=".8"/>
  <path fill="#263238" d="M422.56 435.77a2.85 2.85 0 0 0-.22-.58l-.73-1.69a41.76 41.76 0 0 1-2.07-6.71c-1.33-6-1.57-15 1-25.64a137.38 137.38 0 0 1 5.31-17.08c2.2-6.05 4.75-12.47 6.88-19.42s3.84-14.48 3.8-22.45-2.14-16-4.49-24-4.77-15.87-5.33-23.7a35.91 35.91 0 0 1 5-21.57c3.64-6.22 8.14-11.5 11.55-17a60.09 60.09 0 0 0 7.14-16.48 62.14 62.14 0 0 0 1.24-25.85 48.7 48.7 0 0 0-2.41-9.22 3.34 3.34 0 0 0 .14.62c.12.43.28 1 .49 1.76a66.23 66.23 0 0 1 1.46 6.89 63 63 0 0 1-1.48 25.64 60.14 60.14 0 0 1-7.15 16.27c-3.41 5.45-7.92 10.7-11.63 17a36.54 36.54 0 0 0-5.15 22c.56 8 3 15.86 5.35 23.87s4.43 16 4.48 23.8a75.73 75.73 0 0 1-3.74 22.2c-2.1 6.92-4.61 13.34-6.8 19.4A134.83 134.83 0 0 0 420 401c-2.52 10.73-2.19 19.86-.76 25.84a38.44 38.44 0 0 0 2.24 6.71l.8 1.65a3.36 3.36 0 0 0 .28.57Z"/>
  <path fill="#f7a8a8" d="M438.68 261.28s7.24-20.81-4.16-33.49a.73.73 0 0 0-1.26.33c-.74 3.45-1.86 13.99 5.42 33.16Z"/>
  <path fill="#263238" d="M435.58 234.84a18.74 18.74 0 0 0 .32 3.89c.34 2.68.75 5.84 1.2 9.32l1.18 9.31a21.27 21.27 0 0 0 .58 3.86 16.77 16.77 0 0 0 0-3.91c-.14-2.41-.46-5.72-.94-9.37s-1-6.93-1.45-9.3a17.92 17.92 0 0 0-.89-3.8Z"/>
  <path fill="#f7a8a8" d="M429.39 310.61s-3.33-21.78-19.34-27.65a.72.72 0 0 0-1 .87c1 3.4 4.95 13.24 20.34 26.78Z"/>
  <path fill="#263238" d="M414.28 288.69a19.77 19.77 0 0 0 2.1 3.29l5.43 7.67 5.4 7.68a20.32 20.32 0 0 0 2.31 3.15 16.23 16.23 0 0 0-1.83-3.46c-1.25-2.07-3.08-4.85-5.21-7.85s-4.13-5.65-5.63-7.54a17 17 0 0 0-2.57-2.94Z"/>
  <path fill="#f7a8a8" d="M432.05 365.07s3.13-21.81-10.48-32.08a.73.73 0 0 0-1.18.55c-.06 3.53.85 14.1 11.66 31.53Z"/>
  <path fill="#263238" d="M424 339.7a20.33 20.33 0 0 0 1.06 3.76l3 8.92 2.94 8.92a20.38 20.38 0 0 0 1.3 3.67 16.88 16.88 0 0 0-.74-3.84c-.6-2.33-1.55-5.53-2.72-9s-2.31-6.61-3.19-8.85a16.94 16.94 0 0 0-1.65-3.58Z"/>
  <path fill="#f7a8a8" d="M418.13 419.32s2.35-21.91-11.62-31.69a.73.73 0 0 0-1.15.6c.06 3.53 1.35 14.06 12.77 31.09Z"/>
  <path fill="#263238" d="M409.14 394.26a18.4 18.4 0 0 0 1.19 3.71c.94 2.54 2.05 5.52 3.28 8.81l3.25 8.81a20.37 20.37 0 0 0 1.43 3.63 16.35 16.35 0 0 0-.88-3.81c-.68-2.32-1.74-5.48-3-8.92s-2.55-6.52-3.51-8.73a18.08 18.08 0 0 0-1.76-3.5Z"/>
  <path fill="#f7a8a8" d="M448.71 243.12s19.84-9.58 20.77-26.61a.73.73 0 0 0-1.12-.66c-2.97 1.91-11.22 8.57-19.65 27.27Z"/>
  <path fill="#263238" d="M465.24 222.24a18.85 18.85 0 0 0-2.53 3l-5.71 7.41-5.77 7.41a20.87 20.87 0 0 0-2.32 3.14 16.47 16.47 0 0 0 2.77-2.76c1.61-1.8 3.73-4.37 6-7.29s4.19-5.61 5.56-7.59a18 18 0 0 0 2-3.32Z"/>
  <path fill="#f7a8a8" d="M426.32 287.59s20.39-8.35 22.35-25.29a.73.73 0 0 0-1.08-.73c-3.08 1.73-11.72 7.87-21.27 26.02Z"/>
  <path fill="#263238" d="M444.09 267.75a19.5 19.5 0 0 0-2.71 2.82l-6.18 7.07c-2.32 2.64-4.42 5-6.2 7.06a21.73 21.73 0 0 0-2.52 3 16.24 16.24 0 0 0 2.94-2.58c1.71-1.7 4-4.14 6.4-6.91s4.53-5.35 6-7.25a17.23 17.23 0 0 0 2.27-3.21Z"/>
  <path fill="#f7a8a8" d="M436.3 338.31s14.34-16.73 8.37-32.7a.73.73 0 0 0-1.29-.16c-1.95 2.94-6.85 12.35-7.08 32.86Z"/>
  <path fill="#263238" d="M443.08 312.56a19.7 19.7 0 0 0-1.08 3.74c-.66 2.62-1.43 5.7-2.28 9.11s-1.65 6.48-2.31 9.1a21.68 21.68 0 0 0-.88 3.8 16.33 16.33 0 0 0 1.44-3.63c.75-2.3 1.66-5.5 2.55-9.07s1.59-6.82 2-9.19a17.57 17.57 0 0 0 .56-3.86Z"/>
  <path fill="#f7a8a8" d="M420.75 397.12s20.25-8.69 21.91-25.66a.72.72 0 0 0-1.08-.71c-3.05 1.78-11.58 8.06-20.83 26.37Z"/>
  <path fill="#263238" d="M438.18 377a19.78 19.78 0 0 0-2.66 2.86l-6.06 7.14-6.09 7.15a22.78 22.78 0 0 0-2.46 3 15.85 15.85 0 0 0 2.89-2.63c1.69-1.73 3.92-4.2 6.29-7s4.43-5.42 5.89-7.34a17.42 17.42 0 0 0 2.2-3.18Zm-54.43-67.71a1.61 1.61 0 0 0 0 .48v1.41c0 1.32 0 3.11.07 5.35.11 4.7.26 11.25.44 19.1 1.17 8 4.95 17 10.13 25.72 3.8 6.45 7.81 12.32 11.25 17.78a122.94 122.94 0 0 1 8.36 14.95 61.55 61.55 0 0 1 3.8 10.87c.31 1.32.54 2.36.67 3.07a5.34 5.34 0 0 0 .26 1.07 5 5 0 0 0-.09-1.1c-.08-.72-.26-1.77-.52-3.11a56.76 56.76 0 0 0-3.59-11 116.93 116.93 0 0 0-8.27-15.07c-3.42-5.5-7.41-11.38-11.19-17.79-5.15-8.71-8.92-17.53-10.15-25.42v.05c-.3-7.84-.56-14.4-.74-19.1-.11-2.23-.19-4-.26-5.34 0-.56-.07-1-.1-1.4s-.05-.53-.07-.52Z"/>
  <path fill="#f7a8a8" d="M394.05 359.74s-7.81-20.6 3.24-33.59a.73.73 0 0 1 1.27.29c.83 3.43 2.24 13.94-4.51 33.3Z"/>
  <path fill="#263238" d="M396.43 333.22a17 17 0 0 0-.79 3.83c-.38 2.38-.82 5.68-1.2 9.34s-.6 7-.68 9.39a17 17 0 0 0 .11 3.91 21.23 21.23 0 0 0 .47-3.87c.27-2.7.58-5.86.92-9.35s.68-6.65.95-9.35a19.57 19.57 0 0 0 .22-3.9Z"/>
  <path d="M394.05 359.74s-7.81-20.6 3.24-33.59a.73.73 0 0 1 1.27.29c.83 3.43 2.24 13.94-4.51 33.3Z" opacity=".3"/>
  <path fill="#f7a8a8" d="M418.67 409.58s-6.11-21.17 5.95-33.22a.74.74 0 0 1 1.25.39c.55 3.49 1.13 14.08-7.2 32.83Z"/>
  <path fill="#263238" d="M423.19 383.34a17.11 17.11 0 0 0-1.1 3.75c-.57 2.34-1.27 5.59-1.95 9.21s-1.17 6.91-1.44 9.3a15.71 15.71 0 0 0-.2 3.91 22.26 22.26 0 0 0 .78-3.82c.48-2.66 1.05-5.79 1.67-9.24s1.22-6.58 1.71-9.24a19.48 19.48 0 0 0 .53-3.87Z"/>
  <path d="M418.67 409.58s-6.11-21.17 5.95-33.22a.74.74 0 0 1 1.25.39c.55 3.49 1.13 14.08-7.2 32.83Z" opacity=".3"/>
  <path fill="#f7a8a8" d="M384.07 334.55s-17.64-13.2-15.28-30.09A.73.73 0 0 1 370 304c2.56 2.47 9.39 10.59 14.07 30.55Z"/>
  <path d="M384.07 334.55s-17.64-13.2-15.28-30.09A.73.73 0 0 1 370 304c2.56 2.47 9.39 10.59 14.07 30.55Z" opacity=".3"/>
  <path fill="#263238" d="M371.85 310.89a18.06 18.06 0 0 0 1.39 3.66c1 2.21 2.36 5.23 4 8.52s3.23 6.21 4.46 8.29a16.91 16.91 0 0 0 2.2 3.24 21.21 21.21 0 0 0-1.69-3.52L378 322.7c-1.58-3.14-3-6-4.21-8.4a19.58 19.58 0 0 0-1.94-3.41Z"/>
  <path fill="#f7a8a8" d="M412.05 388.58s-21.65-4.09-27-20.28a.73.73 0 0 1 .9-.94c3.39 1.08 13.1 5.36 26.1 21.22Z"/>
  <path d="M412.05 388.58s-21.65-4.09-27-20.28a.73.73 0 0 1 .9-.94c3.39 1.08 13.1 5.36 26.1 21.22Z" opacity=".3"/>
  <path fill="#263238" d="M390.66 372.72a17.25 17.25 0 0 0 2.85 2.67c1.84 1.56 4.42 3.65 7.35 5.88s5.64 4.16 7.66 5.48a16.47 16.47 0 0 0 3.39 1.95 20.21 20.21 0 0 0-3.06-2.42l-7.49-5.66-7.49-5.69a19 19 0 0 0-3.21-2.21Z"/>
  <path fill="#455a64" d="m431.54 429.27 3.4 29.2h-36.06l4.58-30.08 28.08.88z"/>
  <path fill="#263238" d="M401.46 441.57c0 .23 7.13.64 15.94.92s16 .32 16 .09-7.13-.63-15.94-.91-15.99-.32-16-.1Zm-.89 3.43c0 .23 7.36.64 16.46.93s16.48.34 16.49.11-7.37-.64-16.47-.93-16.47-.39-16.48-.11Z"/>
  <path fill="#f7a8a8" d="M140.6 221.63a8.37 8.37 0 0 0-3.31-3.78 8.06 8.06 0 0 0-4.73-1.34 6.59 6.59 0 0 0-4.6 2.34 6.5 6.5 0 0 0-1.36 2.82 6.52 6.52 0 0 0-2.42-1.48 6.6 6.6 0 0 0-5.15.42 8 8 0 0 0-3.32 3.63 8.33 8.33 0 0 0-.83 4.95 10.2 10.2 0 0 0 2.93 5.68 14.41 14.41 0 0 0 6 3.11c3.65 1 8.42 2.18 8.42 2.18s2.73-3.58 5.31-6.34a14.37 14.37 0 0 0 3.51-5.82 10.17 10.17 0 0 0-.45-6.37Zm295.2-106.37a14 14 0 0 0 .26-8.41 13.45 13.45 0 0 0-4.29-7 10.83 10.83 0 0 0-13.18-.46 10.93 10.93 0 0 0-1.29-4.58 11.06 11.06 0 0 0-6.8-5.35 13.45 13.45 0 0 0-8.21.66 14 14 0 0 0-6.66 5.14 17.1 17.1 0 0 0-2.88 10.3 24.11 24.11 0 0 0 3.86 10.71c3.35 5.37 7.85 12.27 7.85 12.27s7.44-1.28 13.75-1.72a24.12 24.12 0 0 0 10.94-3.16 17 17 0 0 0 6.65-8.4Zm-52.73 115.51a7.42 7.42 0 0 0-.58-4.4 7.1 7.1 0 0 0-2.82-3.3 5.71 5.71 0 0 0-6.9.87 5.68 5.68 0 0 0-1.06-2.28 5.79 5.79 0 0 0-4-2.21 7.16 7.16 0 0 0-4.22 1 7.41 7.41 0 0 0-3 3.24 8.93 8.93 0 0 0-.63 5.6 12.62 12.62 0 0 0 2.91 5.25c2.19 2.52 5.11 5.73 5.11 5.73s3.77-1.29 7-2.05a12.91 12.91 0 0 0 5.43-2.56 9.06 9.06 0 0 0 2.76-4.89Zm-241.23 41.68a3.51 3.51 0 0 0-1.3-1.67 3.45 3.45 0 0 0-1.95-.67 2.76 2.76 0 0 0-2.63 2 2.66 2.66 0 0 0-1-.68 2.73 2.73 0 0 0-2.17.06 3.32 3.32 0 0 0-1.48 1.44 3.56 3.56 0 0 0-.47 2.06 4.33 4.33 0 0 0 1.1 2.46 6.13 6.13 0 0 0 2.46 1.45c1.51.5 3.49 1.11 3.49 1.11s1.23-1.44 2.38-2.54a6 6 0 0 0 1.61-2.36 4.27 4.27 0 0 0-.04-2.66ZM89.3 306.66A3.57 3.57 0 0 0 88 305a3.48 3.48 0 0 0-2-.67 2.8 2.8 0 0 0-2 .88 2.76 2.76 0 0 0-.63 1.15 2.62 2.62 0 0 0-1-.68 2.73 2.73 0 0 0-2.17.06 3.37 3.37 0 0 0-1.48 1.44 3.48 3.48 0 0 0-.46 2.06 4.33 4.33 0 0 0 1.1 2.46 6.07 6.07 0 0 0 2.46 1.45c1.51.5 3.48 1.11 3.48 1.11s1.24-1.44 2.39-2.54a6 6 0 0 0 1.6-2.36 4.27 4.27 0 0 0 .01-2.7Zm304.06-38.83a3.54 3.54 0 0 0-1.3-1.66 3.39 3.39 0 0 0-2-.68 2.76 2.76 0 0 0-2.62 2 2.71 2.71 0 0 0-3.15-.62 3.4 3.4 0 0 0-1.49 1.44 3.63 3.63 0 0 0-.46 2.06 4.3 4.3 0 0 0 1.1 2.46 6.07 6.07 0 0 0 2.46 1.45c1.51.5 3.49 1.11 3.49 1.11s1.23-1.44 2.38-2.54a6.07 6.07 0 0 0 1.61-2.36 4.34 4.34 0 0 0-.02-2.66Z"/>
  <path fill="#263238" d="M194.39 173.21c-7.35-4-18.76-4-26.77 7.15-8.21 11.41-5.19 20.3-3.14 29.64 1.1 5 3.45 10.35 1.43 15.09-2.16 5.09-8.3 7-12.35 10.75a16.55 16.55 0 0 0-3.76 18.33c2.9 6.53 10 10.83 11.73 17.75 1.5 5.9-1.37 12.12-5.38 16.7S147 296.67 142.74 301s-7.87 10-7.52 16c.47 8 7.39 14 13.86 18.72 3.89 2.87 7.9 5.72 12.46 7.32 10.71 3.76 39.05 8.45 49.4 3.8 15.47-7 24.77-21.49 34.91-35.09 12.19-16.36 19.82-50 .83-70.47"/>
  <path fill="#455a64" d="M141 327.57a13.52 13.52 0 0 1-.76-1.48 10.93 10.93 0 0 1-1.12-4.66c0-2.14 1.33-4.57 3.42-6.66a28.14 28.14 0 0 1 8.31-5.62c3.36-1.62 7.24-2.88 11.27-4.53s8.27-3.77 11.46-7.46a15.91 15.91 0 0 0 3.51-6.43 13.17 13.17 0 0 0-.41-7.57 36.22 36.22 0 0 0-3.63-7.19 47.07 47.07 0 0 1-4-7.42 16.26 16.26 0 0 1-1.23-8.36 9.34 9.34 0 0 1 1.56-3.91 11.69 11.69 0 0 1 3-2.87c2.22-1.56 4.63-2.65 6.56-4.28a10 10 0 0 0 3.5-6.25 14.74 14.74 0 0 0-.66-6.94 29.16 29.16 0 0 0-2.91-6c-2.29-3.7-4.84-6.87-7-9.87a54.13 54.13 0 0 1-8.24-15.5 26.74 26.74 0 0 1-1.16-4.64 9.48 9.48 0 0 1-.13-1.67s.06.57.26 1.65a29.57 29.57 0 0 0 1.26 4.58 55.11 55.11 0 0 0 8.37 15.32c2.2 3 4.78 6.14 7.11 9.86a29.48 29.48 0 0 1 3 6.12 15.13 15.13 0 0 1 .7 7.2 10.46 10.46 0 0 1-3.68 6.61c-2 1.71-4.44 2.81-6.58 4.33a10.85 10.85 0 0 0-2.81 2.72 8.55 8.55 0 0 0-1.45 3.66 15.72 15.72 0 0 0 1.19 8 47.27 47.27 0 0 0 4 7.31 37 37 0 0 1 3.68 7.33 13.72 13.72 0 0 1 .41 7.91 16.45 16.45 0 0 1-3.66 6.66c-3.3 3.79-7.68 5.91-11.7 7.56s-7.93 2.87-11.28 4.45a28.15 28.15 0 0 0-8.24 5.47c-2.09 2-3.39 4.35-3.43 6.42a11.21 11.21 0 0 0 1 4.6c.31.98.57 1.53.51 1.55Z"/>
  <path fill="#455a64" d="M162.24 199.42a1.71 1.71 0 0 1-.15-.48 13.23 13.23 0 0 1-.28-1.39 18.78 18.78 0 0 1 0-5.24 21.05 21.05 0 0 1 2.47-7.37 19.33 19.33 0 0 1 15.44-10.08 21.06 21.06 0 0 1 7.74.7 18.68 18.68 0 0 1 4.8 2.1 11.36 11.36 0 0 1 1.16.82 2.18 2.18 0 0 1 .38.32 26.5 26.5 0 0 0-6.46-2.81 21.28 21.28 0 0 0-7.56-.56 19.09 19.09 0 0 0-15 9.8 21.05 21.05 0 0 0-2.53 7.15 26 26 0 0 0-.01 7.04Z"/>
  <path fill="#b78876" d="m248.12 189.59 49.74 86.3-36 27.15-21.86-31.3s-18.66 9.21-30.69-7.46a288.29 288.29 0 0 1-22.31-37.9c-10.2-21-4.17-38.45 13.47-48.87 17.35-10.23 37.31-5.16 47.65 12.08Z"/>
  <path fill="#a36957" d="M239.52 271.52s11.24-6.61 17.55-21.64c0 0 3.33 15.74-14.52 26Z"/>
  <path fill="#263238" d="M230.66 206.48c-.51-.13-1.52 2.45-4.19 4.13s-5.48 1.58-5.56 2.09c0 .24.63.62 1.88.7a8 8 0 0 0 4.7-1.27 7.76 7.76 0 0 0 3.08-3.69c.43-1.15.33-1.91.09-1.96Zm-26.52 15.23c-.51-.12-1.52 2.46-4.19 4.14s-5.48 1.58-5.56 2.09c0 .23.63.62 1.88.7a8.09 8.09 0 0 0 4.7-1.27 7.73 7.73 0 0 0 3.08-3.7c.42-1.14.33-1.91.09-1.96Z"/>
  <path fill="#a36957" d="M228.24 242.89a3.08 3.08 0 0 1-1.26-2.25 9 9 0 0 1 .21-2.64 6.14 6.14 0 0 1 1.18-3.14 4.75 4.75 0 0 1 2.62-1.31 5.11 5.11 0 0 1 3.17.16 4 4 0 0 1 2.06 4.18 5.56 5.56 0 0 1-2.91 3.85 9.73 9.73 0 0 1-4.84 1"/>
  <path fill="#263238" d="M230.18 231.65c-.43.27 1.53 3.08.53 6.76s-4.21 5.47-4 5.88c.08.2 1.05.08 2.33-.78a8.47 8.47 0 0 0 3.41-4.74 7.41 7.41 0 0 0-.62-5.55c-.67-1.22-1.47-1.72-1.65-1.57Zm-1.4-32.08c-.59-.7-3.41.76-7.05 1.6s-6.8.91-7 1.8c-.08.42.68 1 2.1 1.38a12.59 12.59 0 0 0 10.71-2.59c1.09-.98 1.46-1.85 1.24-2.19Zm-33.58 12.72c-.91-.06-1.79 2.06-3.5 4.05s-3.57 3.3-3.34 4.18c.12.41.89.62 2 .35a7.73 7.73 0 0 0 5.51-6.63c.13-1.18-.25-1.9-.67-1.95Zm26.36 23.55c-.07-.16-1.9.43-4.79 1.5-.73.29-1.45.49-1.82.08a3.92 3.92 0 0 1-.6-2.28c-.23-2-.46-4.1-.71-6.31-1.07-8.94-2.23-16.15-2.59-16.11s.22 7.34 1.29 16.28q.42 3.3.81 6.3a4.51 4.51 0 0 0 1 2.89 2 2 0 0 0 1.66.42 6.11 6.11 0 0 0 1.26-.45c2.86-1.28 4.56-2.16 4.49-2.32Z"/>
  <path fill="#263238" d="M261.85 227.83c-.86 5 .1 10.65.27 15.76s2.09 10.51 6.4 13.23 10.73 2.83 12.76 7.46c.86 2 .6 4.25 1.19 6.31.86 3 3.47 5.26 6.35 6.47a16.54 16.54 0 0 0 2.15.74l3.91 6.71c4.83 8.3 10.19 17.07 18.91 21.08a19.52 19.52 0 0 0 15.22.76c4.85-1.93 8.72-6.51 9.19-11.71.35-3.95-1.16-7.84-1.22-11.8-.13-8.26 6-16.17 4-24.17-2.48-9.77-15.21-13.08-20.21-21.83-2.08-3.65-2.66-8-4.69-11.67-3.81-6.88-11.78-10.07-18.95-13.32a54.62 54.62 0 0 1-7.05-3.79 10.43 10.43 0 0 0 1-1.09c3-3.74 3.14-9.33.82-13.53a16.48 16.48 0 0 0-11.49-7.85c-3.07-.56-6.41-.44-9.06-2.09-3-1.84-4.51-5.59-7.72-6.94-2.38-1-5.09-.39-7.67-.29-5.7.23-11.83-3.85-18.62-8.57-4.85-4-10.3-7.49-16.49-7.82-7.35-.39-14.08 3.79-20.26 7.81-5.6 3.65-11.88 8.56-11.5 15.24 7.44 12.59 18.8 24.38 39.15 14.17 4.69-2.35 11.43-2.49 14.93 1.42 3.73 4.16 1.65 12.32 6.63 14.85a8.58 8.58 0 0 0 3.32.76 10.06 10.06 0 0 1 4.14 2s4.93 6.01 4.59 11.7Z"/>
  <path fill="#455a64" d="M271.39 210.44s.16-.3.29-.92a4 4 0 0 0-.48-2.63 5.7 5.7 0 0 0-3.27-2.63 39.91 39.91 0 0 0-5.68-1.21 10.31 10.31 0 0 1-3.25-1.18 7.88 7.88 0 0 1-2.63-2.69c-1.38-2.23-2-5-3-7.59a19.08 19.08 0 0 0-13.47-11.35 18.38 18.38 0 0 0-4.77-.45 20.24 20.24 0 0 0-4.6.8c-3 .86-5.68 2.14-8.38 3.14a28.7 28.7 0 0 1-8 1.85 28 28 0 0 1-7.11-.42 26.65 26.65 0 0 1-9.53-3.77 20.29 20.29 0 0 1-2.26-1.66 7.6 7.6 0 0 1-.72-.65 4.62 4.62 0 0 1 .8.55 26.24 26.24 0 0 0 2.31 1.55 27.36 27.36 0 0 0 9.48 3.54 27.79 27.79 0 0 0 7 .34 28.6 28.6 0 0 0 7.8-1.87c2.66-1 5.39-2.3 8.41-3.19a21.19 21.19 0 0 1 4.74-.83 18.81 18.81 0 0 1 4.94.46 19.57 19.57 0 0 1 13.86 11.75c1 2.7 1.57 5.39 2.87 7.53a7.47 7.47 0 0 0 2.44 2.55 10.26 10.26 0 0 0 3.1 1.16 39 39 0 0 1 5.71 1.31 6 6 0 0 1 3.36 2.85 4 4 0 0 1 .38 2.77 2.25 2.25 0 0 1-.34.89Z"/>
  <path fill="#455a64" d="M243 171.52a2 2 0 0 1-.26-.5 10.51 10.51 0 0 0-.7-1.43 8.58 8.58 0 0 0-1.53-2 5.62 5.62 0 0 0-2.92-1.34c-2.43-.36-5.31.86-7.89 2.82s-5.81 3.83-9.08 5.83a34.31 34.31 0 0 1-18.93 4.43 31.33 31.33 0 0 1-5.88-.89c-.68-.16-1.2-.34-1.55-.45a2.34 2.34 0 0 1-.53-.21 17.88 17.88 0 0 1 2.13.43 37 37 0 0 0 5.85.68 35 35 0 0 0 18.6-4.53c3.24-2 6.38-3.85 9-5.75s5.69-3.24 8.3-2.79a5.79 5.79 0 0 1 3.08 1.52 7.94 7.94 0 0 1 1.51 2.1 8.69 8.69 0 0 1 .61 1.5 2.17 2.17 0 0 1 .19.58Z"/>
  <path fill="#ffbe9d" d="M347.35 335.83c-11.07 5-15.81 7.32-26.88 8.64v.14l-14.72-35.34c1.57-1.46 3.37-3.23 5.39-5.4a22.29 22.29 0 0 0 4.13-6.37c1.23-2.84 2.7-6.68 2.86-9 .19-2.91 3.82-4.07 5.24-1.84s1.09 10.27-3.39 18.52 9.18 2.63 14.2.66Z"/>
  <path fill="#455a64" d="M258 288.31a32.58 32.58 0 0 1 22.39-12.4c7.94-.93 14.55-1.81 22.3 1.64 17.28 7.7 20 17.27 29.21 33.78 7.18 12.84 11.7 35.63 9.42 58.62-2.3 23.35-6.4 53-6.4 53l22.54 35.51H240.9v-67.37l-38.72-25Z"/>
  <path fill="#ffbe9d" d="m336.56 313.79-5.79 10.89c-.94 1.77-2.28 3.79-4.28 3.75-1.83 0-3.17-1.95-3.25-3.78a11.12 11.12 0 0 1 1.57-5.19l6.56-13.25.37-1.23s2.11-3.61 4.6-2.36c2.27 1.13 3.18 5.6.22 11.17Z"/>
  <path fill="#ffbe9d" d="M340.68 322.76q-2.88 5.44-5.78 10.89c-.94 1.77-2.28 3.79-4.29 3.75-1.83 0-3.16-1.95-3.24-3.77a11 11 0 0 1 1.56-5.2l6.57-13.25.37-1.23s2.1-3.61 4.6-2.36c2.27 1.13 3.17 5.6.21 11.17Z"/>
  <path fill="#ffbe9d" d="m344.57 332-5.49 10.33c-.89 1.67-2.16 3.59-4.06 3.55-1.73 0-3-1.84-3.08-3.58a10.45 10.45 0 0 1 1.49-4.92q3.1-6.28 6.22-12.56l.35-1.17s2-3.42 4.36-2.24c2.16 1.06 3.01 5.29.21 10.59Z"/>
  <path fill="#ffbe9d" d="M348.11 336.51 344 344.2c-.67 1.25-1.61 2.67-3 2.64a2.66 2.66 0 0 1-2.29-2.66 7.77 7.77 0 0 1 1.11-3.67l4.63-9.36.26-.87s1.49-2.55 3.25-1.67 2.24 3.96.15 7.9Z"/>
  <path fill="#eb996e" d="M337.32 311.7a10.7 10.7 0 0 1-.77 1.71l-2.3 4.58-3.49 6.75a8.09 8.09 0 0 1-2.88 3.58 3.12 3.12 0 0 1-2.54.21 4 4 0 0 1-2-1.66A6 6 0 0 1 323 322a30.7 30.7 0 0 1 1.92-4.11c1.32-2.5 2.51-4.78 3.53-6.73s1.8-3.34 2.42-4.51a10.5 10.5 0 0 1 1-1.61 10.55 10.55 0 0 1-.75 1.72l-2.25 4.61c-1 2-2.14 4.26-3.41 6.79a29.63 29.63 0 0 0-1.84 4 5.42 5.42 0 0 0 .23 4.41 2.85 2.85 0 0 0 3.74 1.23 7.78 7.78 0 0 0 2.65-3.31l3.61-6.69c1-1.82 1.84-3.32 2.48-4.48a11.11 11.11 0 0 1 .99-1.62Z"/>
  <path fill="#eb996e" d="M341.36 321.31a10 10 0 0 1-.76 1.71c-.6 1.18-1.38 2.72-2.31 4.58l-3.49 6.75a8.09 8.09 0 0 1-2.88 3.58 3.12 3.12 0 0 1-2.54.21 4 4 0 0 1-2-1.66 6 6 0 0 1-.28-4.92 29.49 29.49 0 0 1 1.91-4.11c1.32-2.5 2.51-4.78 3.53-6.73s1.8-3.34 2.43-4.51a10.1 10.1 0 0 1 1-1.61 10.55 10.55 0 0 1-.75 1.72l-2.25 4.61-3.4 6.79a29.66 29.66 0 0 0-1.85 4 5.43 5.43 0 0 0 .23 4.41 2.85 2.85 0 0 0 3.74 1.23 7.78 7.78 0 0 0 2.65-3.31c1.35-2.49 2.56-4.75 3.61-6.69l2.48-4.48a12.37 12.37 0 0 1 .93-1.57Z"/>
  <path fill="#eb996e" d="M346 328.43a13.65 13.65 0 0 1-.76 1.74l-2.09 4.73c-.88 2-1.9 4.4-3.21 7a9.53 9.53 0 0 1-2.76 3.73 3.19 3.19 0 0 1-2.53.46 3.91 3.91 0 0 1-2.16-1.52 5.8 5.8 0 0 1-.49-4.95 26.29 26.29 0 0 1 1.91-4.17c1.33-2.53 2.53-4.83 3.56-6.8s1.82-3.38 2.45-4.56a10.3 10.3 0 0 1 1-1.63 11.46 11.46 0 0 1-.76 1.74l-2.27 4.65-3.45 6.87a25.45 25.45 0 0 0-1.83 4.07 5.23 5.23 0 0 0 .41 4.42 3.31 3.31 0 0 0 1.8 1.27 2.52 2.52 0 0 0 2.05-.37 8.83 8.83 0 0 0 2.57-3.48c1.33-2.55 2.39-4.92 3.32-6.9s1.71-3.57 2.29-4.65a9 9 0 0 1 .95-1.65Z"/>
  <path fill="#ffbe9d" d="m278 168.57-3.83.37-21.31 42.37-7.61 15.11a59.8 59.8 0 0 1-6.3 8.38c-8.86 9.7-34.56 23.48-34.56 23.48l49.44 27.14 26.31-18.17.07.06s19.12 8.2 30.25-9.09 33.2-59.22 33.2-59.22A71.43 71.43 0 0 0 278 168.57Z"/>
  <path fill="#eb996e" d="M280.43 267.07A34.17 34.17 0 0 1 260 242.48s-2.85 18.66 15.52 28Z"/>
  <path fill="#ffbe9d" d="M265 188.33c-.21-.31-9.75-11-16.83 1.11s7.5 17.13 7.73 16.8 9.1-17.91 9.1-17.91Z"/>
  <path fill="#eb996e" d="M254 199.09c0-.07-.3 0-.75 0a2.41 2.41 0 0 1-1.6-.89c-1-1.22-.9-3.88.31-6.11a8.15 8.15 0 0 1 2.36-2.68 2.82 2.82 0 0 1 2.54-.7 1.25 1.25 0 0 1 .91 1.31c0 .43-.25.63-.2.69s.38-.05.58-.61a1.57 1.57 0 0 0 0-1 1.81 1.81 0 0 0-1-1 3.46 3.46 0 0 0-3.31.59 8.37 8.37 0 0 0-2.71 3c-1.34 2.5-1.43 5.52 0 7.05a2.61 2.61 0 0 0 2.13.8c.53-.17.74-.4.74-.45Z"/>
  <path fill="#263238" d="M314.28 215.31c.5-.17 1.72 2.31 4.53 3.75s5.6 1.1 5.72 1.6c.08.23-.57.67-1.81.86a8 8 0 0 1-4.79-.86 7.65 7.65 0 0 1-3.39-3.41c-.54-1.1-.54-1.87-.26-1.94ZM288 199.9c.51-.14 1.58 2.41 4.3 4s5.51 1.44 5.61 2c.05.23-.61.64-1.86.75a8.11 8.11 0 0 1-4.74-1.15 7.8 7.8 0 0 1-3.17-3.61c-.5-1.17-.43-1.89-.14-1.99Zm7.66 31.54c.08-.16 1.93.59 4.84 1.94.73.35 1.46.62 1.87.23a4.13 4.13 0 0 0 .81-2.31q.6-3.09 1.24-6.48c1.84-9.17 3.62-16.54 4-16.46s-.82 7.58-2.65 16.75l-1.35 6.45a4.65 4.65 0 0 1-1.32 2.9 2 2 0 0 1-1.76.3 5.51 5.51 0 0 1-1.26-.57c-2.81-1.55-4.5-2.59-4.42-2.75Zm-9.04-3.09c.45.25-1.36 3.16-.17 6.78s4.49 5.24 4.26 5.66c-.07.21-1 .13-2.37-.65a8.52 8.52 0 0 1-3.66-4.56A7.41 7.41 0 0 1 285 230c.66-1.27 1.43-1.79 1.62-1.65Zm19.03-32.92c-.72.57-3.18-1.45-6.56-3s-6.46-2.33-6.46-3.24c0-.43.88-.84 2.34-.9a12 12 0 0 1 5.52 1.25 11.88 11.88 0 0 1 4.4 3.54c.86 1.14 1.11 2.08.76 2.35Zm23.23 17.69c-.85.31-2.3-1.48-4.5-2.9s-4.35-2.15-4.38-3.06c0-.43.68-.85 1.86-.91a7.74 7.74 0 0 1 7.16 4.8c.39 1.11.26 1.95-.14 2.07Z"/>
  <path fill="#263238" d="M359 193.35a7.59 7.59 0 0 0 1.23-7.23 5.38 5.38 0 0 0-6.19-3.26 6.28 6.28 0 0 0-.53-9.32c-2.73-2-6.5-1.34-9.72-2.3s-5.62-3.38-7.54-6-3.44-5.59-5.46-8.18a26.29 26.29 0 0 0-36.69-4.77c-3.06-3.58-8.6-4.36-13-2.6s-7.63 5.62-9.64 9.87a43.42 43.42 0 0 0-2.91 9.07c-.14.22-.3.43-.43.66-5.82 9.69-11.79 21.62-7.74 24.24 7.05 4.58 13.76-9.91 13.76-9.91 10.86 2.1 15.81-13 19.24-13.66s10.9-2.37 23.34 18.45c4.84 8.09 14.36 13.89 20.25 16l.51.19h.31a19.55 19.55 0 0 0 5.95 1 11 11 0 0 0 6.56-1.88 6 6 0 0 0 2.42-6.08 13.14 13.14 0 0 0 6.28-4.29Z"/>
  <path fill="#fafafa" d="M344.72 188.8a2.7 2.7 0 0 1-.84-.74A4.59 4.59 0 0 1 343 185a5.12 5.12 0 0 1 .63-2.26 4.34 4.34 0 0 1 2.06-1.89 5.93 5.93 0 0 1 6.39 1.3A6.83 6.83 0 0 1 353 190a8.89 8.89 0 0 1-7.94 4.49 13.46 13.46 0 0 1-9.34-4.16 26.59 26.59 0 0 1-6-9.31c-1.44-3.52-2.49-7.06-3.69-10.4a38.23 38.23 0 0 0-4.41-9.15l-.7-1c-.24-.32-.52-.6-.78-.9l-.77-.88c-.28-.27-.55-.54-.84-.79a18.65 18.65 0 0 0-3.63-2.55 19 19 0 0 0-18.74.32 20.46 20.46 0 0 0-2.61 1.8 7.75 7.75 0 0 1-.87.69 14.67 14.67 0 0 1 3.35-2.69 19.11 19.11 0 0 1 11.3-2.82 19.51 19.51 0 0 1 11.57 4.84c.3.25.58.53.87.81l.8.9c.26.3.55.59.8.92s.47.66.72 1a38.57 38.57 0 0 1 4.52 9.27c1.21 3.36 2.26 6.89 3.69 10.37a26 26 0 0 0 5.81 9.11 13 13 0 0 0 8.92 4 8.37 8.37 0 0 0 7.48-4.16 6.37 6.37 0 0 0-.75-7.27 5.57 5.57 0 0 0-5.94-1.29 4.45 4.45 0 0 0-2.59 3.84 4.58 4.58 0 0 0 .76 3 8.91 8.91 0 0 0 .73.81Z"/>
  <path fill="#f7a8a8" d="M240.9 388.12 272.52 292 265 277.7l-45.68-29.63c-1.67 1.11-55 21.8-71 70.48-11.47 34.93-18.29 106.83-18.29 106.83l-6 33.09H240.9v-70.35"/>
  <path d="M149.8 423.38c8.41 5.89 16.92 11.84 26.53 15.44s20.58 4.66 30 .68c4.24-1.79 8.44-4.61 13-4 5.45.71 9 5.92 13.63 8.88 2.47 1.58 5.3 3.62 7.54 1.72l.17-8.2c-.12-10.38.18-33 .18-33-.08-1.13 0-.26-.39-.53-2-1.42-4.68-.29-6.54 1.33-8.65 7.54-15.92 17-26.25 22-8.93 4.33-19.33 4.8-29.1 3.16s-19.1-5.26-28.34-8.86" opacity=".2"/>
  <path fill="#f7a8a8" d="M231 285.46s-27.43 20-10.82 60.1 31.69 60.86 31.69 60.86L305 363.05l-9.58-17.88a90.51 90.51 0 0 1-9.06-25c-2.27-11.38-7.82-28.95-21.11-39-8.1-6.07-19.94-4.44-34.25 4.29Z"/>
  <path fill="#fafafa" d="M188.34 266.15a23.11 23.11 0 0 1 4.64.45 15.7 15.7 0 0 1 5.15 1.89 10.38 10.38 0 0 1 2.62 2.26 10.76 10.76 0 0 1 1.85 3.41 16.27 16.27 0 0 1 .45 8.77 16 16 0 0 1-5.12 8.67c-2.7 2.39-6.11 4-9.36 6.06a22.89 22.89 0 0 0-4.56 3.56 12.4 12.4 0 0 0-2.95 5.06c-1.14 3.87-.74 7.93-1 11.79a21.68 21.68 0 0 1-1 5.65 19.72 19.72 0 0 1-2.44 4.93 20.9 20.9 0 0 1-7.54 6.73 18.8 18.8 0 0 1-8.54 2.09 20.34 20.34 0 0 1-7.16-1.27 19.67 19.67 0 0 1-4.84-2.57 18.06 18.06 0 0 1-2.6-2.29l-.59-.68c-.13-.16-.19-.24-.18-.25a25.39 25.39 0 0 0 3.51 3 19.78 19.78 0 0 0 4.82 2.44 20.07 20.07 0 0 0 7 1.15 18.37 18.37 0 0 0 8.31-2.1 20.37 20.37 0 0 0 7.3-6.59 19.43 19.43 0 0 0 3.32-10.3c.26-3.8-.16-7.89 1-11.93a12.87 12.87 0 0 1 3.1-5.3 23.21 23.21 0 0 1 4.69-3.66c3.29-2 6.67-3.66 9.3-6a15.39 15.39 0 0 0 5-8.34 15.8 15.8 0 0 0-.36-8.52 10.46 10.46 0 0 0-1.73-3.3 10.27 10.27 0 0 0-2.5-2.21 15.77 15.77 0 0 0-5-2c-1.46-.32-2.61-.44-3.39-.54l-.9-.1a1 1 0 0 1-.3.04Zm25.45-8.52s.15-.1.47-.24a9.34 9.34 0 0 1 1.46-.47 10.27 10.27 0 0 1 5.6.32 8.37 8.37 0 0 1 3.3 2.13 8.16 8.16 0 0 1 2 4.05 7.29 7.29 0 0 1-.72 4.93 7.66 7.66 0 0 1-4.19 3.33 9.57 9.57 0 0 1-9.73-2.12 8.24 8.24 0 0 1-2.21-7.86 7.4 7.4 0 0 1 3.43-4.39 6.43 6.43 0 0 1 1.42-.59 1.88 1.88 0 0 1 .53-.08 16.15 16.15 0 0 0-1.83.87 7.39 7.39 0 0 0-3.12 4.31 7.8 7.8 0 0 0 2.19 7.33 9 9 0 0 0 9.11 1.94 7 7 0 0 0 3.86-3 6.82 6.82 0 0 0 .7-4.53 7.73 7.73 0 0 0-1.82-3.8 8.14 8.14 0 0 0-3.08-2.07 10.43 10.43 0 0 0-5.39-.49c-1.29.19-1.96.49-1.98.43ZM237 381a7 7 0 0 0 1.44 1.45 7.51 7.51 0 0 0 5.56 1.22 14.67 14.67 0 0 0 7.83-4.66 24.74 24.74 0 0 0 3.44-4.64 25.83 25.83 0 0 0 2.35-6 23.72 23.72 0 0 0-.92-14.6 28.3 28.3 0 0 0-4.33-7c-1.76-2.26-3.72-4.5-5.38-7.08a17.57 17.57 0 0 1-3-8.85 41.69 41.69 0 0 1 1-9.72 35.85 35.85 0 0 0 .83-9.92 22.87 22.87 0 0 0-6.28-13.73 21.3 21.3 0 0 0-4-3.12A16.39 16.39 0 0 0 226 292a19.28 19.28 0 0 0-4.73.88 20.18 20.18 0 0 0-4.27 2 18.06 18.06 0 0 0-3.46 3.05 13.84 13.84 0 0 0-2.31 3.86 27.54 27.54 0 0 0-1.49 8.61 33.44 33.44 0 0 1-1.22 8.32 25.93 25.93 0 0 1-3.83 6.86c-1.47 2-2.95 3.93-4.14 5.88a15.39 15.39 0 0 0-2.27 6 14 14 0 0 0 .41 5.71 15.15 15.15 0 0 0 2.27 4.45 14 14 0 0 0 1.49 1.64l.76.7.79.58a15.18 15.18 0 0 0 5.34 2.34c.66.13 1.17.17 1.51.24l.52.09a3.37 3.37 0 0 1-.52 0c-.35 0-.87-.07-1.54-.18a14.59 14.59 0 0 1-5.45-2.27l-.81-.57-.79-.7a13.83 13.83 0 0 1-3.9-6.19 14.15 14.15 0 0 1-.47-5.86 15.71 15.71 0 0 1 2.29-6.17c1.18-2 2.67-3.9 4.12-5.93a25.48 25.48 0 0 0 3.73-6.74 33.26 33.26 0 0 0 1.16-8.2 28.43 28.43 0 0 1 1.5-8.79 14.78 14.78 0 0 1 2.4-4 17.82 17.82 0 0 1 3.59-3.17 20.49 20.49 0 0 1 4.4-2.11 19.58 19.58 0 0 1 4.89-.92 18 18 0 0 1 5.05.43 19 19 0 0 1 4.77 1.94 21.28 21.28 0 0 1 4.11 3.23 23.1 23.1 0 0 1 3.22 4.19 23.56 23.56 0 0 1 3.23 9.91 36.33 36.33 0 0 1-.84 10.09 41.61 41.61 0 0 0-1 9.57 17.17 17.17 0 0 0 2.92 8.58c3.25 5 7.74 9 9.71 14.23a24.11 24.11 0 0 1 .87 14.89 26.41 26.41 0 0 1-2.43 6.12 24.49 24.49 0 0 1-3.54 4.7 14.87 14.87 0 0 1-8 4.65 7.56 7.56 0 0 1-5.67-1.36 5.76 5.76 0 0 1-1.09-1.1 4.25 4.25 0 0 1-.28-.48Zm43.25-74.58a1.94 1.94 0 0 1-.29.5 7.71 7.71 0 0 1-1 1.3 12.31 12.31 0 0 1-5.19 3.22 13.38 13.38 0 0 1-9-.27 16.56 16.56 0 0 1-8.34-7.24 20.63 20.63 0 0 1-2.6-10.77c.1-3.42.82-6.57 2.34-8.75a7.56 7.56 0 0 1 5.07-3.31 5.18 5.18 0 0 1 1.67 0 1.66 1.66 0 0 1 .56.17 8.13 8.13 0 0 0-2.2 0 7.48 7.48 0 0 0-4.74 3.32 16.31 16.31 0 0 0-2.12 8.51 20.35 20.35 0 0 0 2.56 10.45 16.2 16.2 0 0 0 8 7 13.08 13.08 0 0 0 8.67.39 12.66 12.66 0 0 0 5.15-3c.98-.88 1.41-1.56 1.46-1.52Zm10.61 29.76a8.37 8.37 0 0 0-1.88-1.67 7.8 7.8 0 0 0-6.58-.47c-2.71 1-5.15 3.83-6.37 7.46s-1.33 8-1.86 12.44-1.25 8.69-1.58 12.56a45 45 0 0 0 .11 10.27 28 28 0 0 0 1.74 6.69c.62 1.52 1.07 2.31 1 2.34a3 3 0 0 1-.37-.55 17.12 17.12 0 0 1-.88-1.69 26 26 0 0 1-1.95-6.73 43.65 43.65 0 0 1-.24-10.38c.3-3.9 1-8.13 1.53-12.59s.59-8.79 1.93-12.55 3.88-6.67 6.77-7.69a7.91 7.91 0 0 1 6.86.69 5.73 5.73 0 0 1 1.41 1.3 2.12 2.12 0 0 1 .36.57ZM128 440.17s.21.56.72 1.57a18.51 18.51 0 0 0 2.77 4.08 16.07 16.07 0 0 0 2.67 2.34 8.47 8.47 0 0 0 3.88 1.47 8.58 8.58 0 0 0 4.61-1.13 50.74 50.74 0 0 0 4.79-2.66c3.27-2 6.92-4.4 11.46-5.35s9.4-1.11 14.06-3.12a24.26 24.26 0 0 0 11.21-10.76 41.36 41.36 0 0 0 4.48-16.34 45.4 45.4 0 0 0-1.29-16.93 24.27 24.27 0 0 0-3.51-7.23 18 18 0 0 0-5.7-5.11c-2.19-1.28-4.5-2.24-6.6-3.5a17.7 17.7 0 0 1-5.28-4.73c-2.76-3.69-4.25-7.72-5.89-11.19a29.28 29.28 0 0 0-5.54-8.68 13.55 13.55 0 0 0-6.7-3.74 9.86 9.86 0 0 0-4.87.12c-1.08.35-1.58.68-1.6.64a6.24 6.24 0 0 1 1.56-.76 9.82 9.82 0 0 1 5-.24 13.69 13.69 0 0 1 6.9 3.73 29.52 29.52 0 0 1 5.69 8.74c1.67 3.48 3.18 7.48 5.91 11.07a17.1 17.1 0 0 0 5.15 4.57c2.05 1.23 4.36 2.18 6.6 3.47a18.67 18.67 0 0 1 5.89 5.26 24.87 24.87 0 0 1 3.62 7.4 45.93 45.93 0 0 1 1.33 17.17 42.36 42.36 0 0 1-4.57 16.58 24.9 24.9 0 0 1-11.52 11 29.93 29.93 0 0 1-7.26 1.93c-2.39.39-4.72.68-6.92 1.17-4.44.9-8 3.24-11.34 5.21a50.07 50.07 0 0 1-4.85 2.65 16.31 16.31 0 0 1-2.39.92c-.21.05-.41.12-.61.15l-.61.07a6.84 6.84 0 0 1-1.2 0 8.62 8.62 0 0 1-4-1.58 15.35 15.35 0 0 1-2.69-2.42 17.36 17.36 0 0 1-2.7-4.19 8.82 8.82 0 0 1-.66-1.65Z"/>
  <path fill="#263238" d="m305 363.05-.24.22-.73.63-2.87 2.4-10.88 9-38.2 31.35-.24.2-.17-.25c-2-2.87-3.83-6-5.66-9.14s-3.65-6.45-5.49-9.8a556.14 556.14 0 0 1-10.84-21.07c-3.47-7.09-6.72-14.08-9.69-20.9-1.47-3.42-2.9-6.79-4.14-10.15-.63-1.68-1.21-3.36-1.7-5-.21-.86-.42-1.71-.62-2.55s-.31-1.71-.46-2.56a41.22 41.22 0 0 1 1.63-19.27 43.44 43.44 0 0 1 8.38-14.66 39.29 39.29 0 0 1 10.89-8.7 35.07 35.07 0 0 1 9.89-3.64 33 33 0 0 1 6.62-.65l1.74.1c.39 0 .58.05.58.05h-2.32a35.07 35.07 0 0 0-6.57.76 35.88 35.88 0 0 0-9.77 3.7 39.31 39.31 0 0 0-10.73 8.69 43.07 43.07 0 0 0-8.21 14.53 40.75 40.75 0 0 0-1.56 19c.15.83.3 1.67.46 2.52s.41 1.67.62 2.51c.48 1.67 1.06 3.33 1.68 5 1.25 3.35 2.68 6.71 4.15 10.11 3 6.81 6.22 13.79 9.69 20.87 3.57 7.29 7.18 14.35 10.82 21.06q2.75 5 5.47 9.79c1.82 3.17 3.62 6.26 5.6 9.11l-.41-.06c15.65-12.73 28.94-23.54 38.35-31.18l11-8.86 2.93-2.33.76-.59c.15-.19.24-.29.24-.24Z"/>
  <path fill="#ffbe9d" d="M350.43 405.7c-2.65-12.84-11.24-15.9-11.24-15.9l-2 15.76-23-9.41-17.94-25.64-37.79 30.9s30.12 31 42.78 32.31 42.53-.08 42.53-.08 9.3-15.1 6.66-27.94Z"/>
  <path fill="#b78876" d="m208.16 370-23.36 27.86-49.89-7.22.09-.64 1.54-15.81c-14.88 2.18-17.2 13.66-17.87 21.66-.74 8.85 10.16 17.14 12.43 18.76v.4s50.48 27.31 73.36 19.81c10.62-3.48 36.48-30.63 36.48-30.63v-13.1Z"/>
  <path fill="#455a64" d="m201.62 365.91 39.28 29.89 2.12-3.55A489.73 489.73 0 0 1 220.4 346Z"/>
  <path fill="#b78876" d="m151.79 303.35 5.79 10.89c.94 1.77 2.28 3.79 4.28 3.75 1.83 0 3.17-1.95 3.25-3.78a11.12 11.12 0 0 0-1.57-5.19q-3.28-6.63-6.56-13.25l-.37-1.23s-2.11-3.61-4.6-2.37c-2.27 1.14-3.18 5.61-.22 11.18Z"/>
  <path fill="#b78876" d="M147.67 312.32q2.88 5.44 5.78 10.89c.94 1.77 2.16 4.38 4.17 4.34a4.27 4.27 0 0 0 3.71-3.84c.08-1.82-1.1-4.08-1.91-5.72l-6.57-13.25-.37-1.23s-2.1-3.61-4.6-2.36c-2.27 1.13-3.17 5.6-.21 11.17Z"/>
  <path fill="#b78876" d="m143.78 321.54 5.49 10.32c.89 1.68 2.16 3.6 4.06 3.56 1.73 0 3-1.85 3.08-3.58a10.45 10.45 0 0 0-1.49-4.92l-6.22-12.57-.35-1.16s-2-3.42-4.36-2.24c-2.16 1.05-2.99 5.31-.21 10.59Z"/>
  <path fill="#b78876" d="m140.24 326.07 4.08 7.68c.67 1.25 1.61 2.68 3 2.65a2.66 2.66 0 0 0 2.29-2.66 7.77 7.77 0 0 0-1.11-3.67l-4.63-9.36-.26-.87s-1.49-2.55-3.25-1.67c-1.58.83-2.21 3.96-.12 7.9Z"/>
  <path fill="#a36957" d="M151 301.25a11.71 11.71 0 0 1 1 1.61c.64 1.15 1.48 2.66 2.48 4.48s2.27 4.19 3.61 6.69a7.72 7.72 0 0 0 2.66 3.31 2.84 2.84 0 0 0 3.73-1.23 5.45 5.45 0 0 0 .23-4.42 30.06 30.06 0 0 0-1.84-4l-3.41-6.8-2.25-4.6a10.38 10.38 0 0 1-.75-1.73 11 11 0 0 1 1 1.62l2.42 4.51 3.53 6.73a30.7 30.7 0 0 1 1.92 4.11 6 6 0 0 1-.29 4.92 3.92 3.92 0 0 1-2 1.65 3.12 3.12 0 0 1-2.54-.2 8.06 8.06 0 0 1-2.88-3.59l-3.49-6.74-2.33-4.57a11 11 0 0 1-.8-1.75Z"/>
  <path fill="#a36957" d="M147 310.86a13.12 13.12 0 0 1 1 1.61l2.48 4.48 3.61 6.69a7.78 7.78 0 0 0 2.65 3.31 2.85 2.85 0 0 0 3.74-1.23 5.45 5.45 0 0 0 .23-4.42 30.82 30.82 0 0 0-1.85-4c-1.27-2.53-2.42-4.82-3.4-6.79l-2.25-4.6a10.38 10.38 0 0 1-.75-1.73 10.6 10.6 0 0 1 1 1.62c.63 1.16 1.45 2.68 2.43 4.51l3.53 6.73a29 29 0 0 1 1.91 4.11A6 6 0 0 1 161 326a3.92 3.92 0 0 1-2 1.65 3.12 3.12 0 0 1-2.54-.2 8.06 8.06 0 0 1-2.88-3.59l-3.49-6.74-2.3-4.58a9.87 9.87 0 0 1-.79-1.68Z"/>
  <path fill="#a36957" d="M142.37 318a8.56 8.56 0 0 1 1 1.64c.58 1.08 1.36 2.67 2.29 4.65s2 4.35 3.32 6.9a9 9 0 0 0 2.57 3.48 2.56 2.56 0 0 0 2 .37 3.31 3.31 0 0 0 1.8-1.27 5.23 5.23 0 0 0 .41-4.42 26 26 0 0 0-1.83-4.08c-1.29-2.55-2.45-4.87-3.45-6.86l-2.27-4.65a13 13 0 0 1-.76-1.74 10.3 10.3 0 0 1 1 1.63c.63 1.18 1.45 2.71 2.45 4.56s2.23 4.27 3.56 6.8a25.89 25.89 0 0 1 1.91 4.17 5.8 5.8 0 0 1-.49 4.95 4 4 0 0 1-2.16 1.52 3.16 3.16 0 0 1-2.53-.47 9.43 9.43 0 0 1-2.76-3.72c-1.31-2.59-2.33-5-3.21-7l-2.09-4.73a13.65 13.65 0 0 1-.76-1.73Z"/>
</svg>
